<svg width="24" height="24" viewBox="0 0 24 24" fill="none" xmlns="http://www.w3.org/2000/svg">
<g clip-path="url(#clip0_3538_1479)">
<path fill-rule="evenodd" clip-rule="evenodd" d="M18 24H6C4.40872 23.9999 2.88264 23.3678 1.75744 22.2426C0.632233 21.1174 6.96138e-05 19.5913 0 18L0 6C6.96138e-05 4.40872 0.632233 2.88264 1.75744 1.75744C2.88264 0.632233 4.40872 6.96138e-05 6 0L18 0C19.5913 0 21.1174 0.632141 22.2426 1.75736C23.3679 2.88258 24 4.4087 24 6V18C24 19.5913 23.3679 21.1174 22.2426 22.2426C21.1174 23.3679 19.5913 24 18 24Z" fill="#59BAFF"/>
<path fill-rule="evenodd" clip-rule="evenodd" d="M11.25 6.75H18C18.8652 6.74995 19.6974 6.41762 20.3246 5.82165C20.9519 5.22569 21.3263 4.41159 21.3706 3.5475C21.4149 2.68341 21.1256 1.83531 20.5626 1.17835C19.9995 0.521389 19.2057 0.105743 18.345 0.01725C18.2302 0.010875 18.1166 0 18 0H6C4.40872 6.96138e-05 2.88264 0.632233 1.75744 1.75744C0.632233 2.88264 6.96138e-05 4.40872 0 6L0 18C6.96164e-05 15.0163 1.18536 12.1549 3.29513 10.0451C5.40489 7.93536 8.26634 6.75007 11.25 6.75Z" fill="#3FA1FF"/>
<path fill-rule="evenodd" clip-rule="evenodd" d="M18 12C16.8133 12 15.6533 12.3519 14.6666 13.0112C13.6799 13.6705 12.9109 14.6075 12.4567 15.7039C12.0026 16.8003 11.8838 18.0067 12.1153 19.1705C12.3468 20.3344 12.9182 21.4035 13.7574 22.2426C14.5965 23.0818 15.6656 23.6532 16.8295 23.8847C17.9933 24.1162 19.1997 23.9974 20.2961 23.5433C21.3925 23.0892 22.3295 22.3201 22.9888 21.3334C23.6481 20.3467 24 19.1867 24 18V6C24 7.5913 23.3679 9.11742 22.2426 10.2426C21.1174 11.3679 19.5913 12 18 12Z" fill="#3FA1FF"/>
<path d="M6.75 9.375H5.25C4.83579 9.375 4.5 9.71079 4.5 10.125V18.75C4.5 19.1642 4.83579 19.5 5.25 19.5H6.75C7.16421 19.5 7.5 19.1642 7.5 18.75V10.125C7.5 9.71079 7.16421 9.375 6.75 9.375Z" fill="white"/>
<path d="M6 7.875C7.03553 7.875 7.875 7.03553 7.875 6C7.875 4.96447 7.03553 4.125 6 4.125C4.96447 4.125 4.125 4.96447 4.125 6C4.125 7.03553 4.96447 7.875 6 7.875Z" fill="white"/>
<path fill-rule="evenodd" clip-rule="evenodd" d="M12.75 10.74C13.0524 10.2114 13.4891 9.77203 14.016 9.46647C14.5428 9.16092 15.141 8.99999 15.75 9C17.6576 9 19.5 10.125 19.5 13.125V18.75C19.5 18.8485 19.4806 18.946 19.443 19.037C19.4053 19.1281 19.35 19.2107 19.2804 19.2804C19.2107 19.35 19.1281 19.4053 19.037 19.443C18.946 19.4806 18.8485 19.5 18.75 19.5H17.25C17.1515 19.5 17.054 19.4806 16.963 19.443C16.8719 19.4053 16.7893 19.35 16.7196 19.2804C16.65 19.2107 16.5947 19.1281 16.557 19.037C16.5193 18.946 16.5 18.8485 16.5 18.75V13.5C16.5 13.0027 16.3025 12.5258 15.9508 12.1742C15.5992 11.8225 15.1223 11.625 14.625 11.625C14.1277 11.625 13.6508 11.8225 13.2992 12.1742C12.9475 12.5258 12.75 13.0027 12.75 13.5V18.75C12.75 18.8485 12.7307 18.946 12.693 19.037C12.6553 19.1281 12.6 19.2107 12.5304 19.2804C12.4607 19.35 12.3781 19.4053 12.287 19.443C12.196 19.4806 12.0985 19.5 12 19.5H10.5C10.4015 19.5 10.304 19.4806 10.213 19.443C10.1219 19.4053 10.0393 19.35 9.9696 19.2804C9.89995 19.2107 9.84471 19.1281 9.80703 19.037C9.76935 18.946 9.74997 18.8485 9.75 18.75V10.125C9.74997 10.0265 9.76935 9.92896 9.80703 9.83795C9.84471 9.74694 9.89995 9.66425 9.9696 9.5946C10.0393 9.52495 10.1219 9.46971 10.213 9.43203C10.304 9.39435 10.4015 9.37497 10.5 9.375H12C12.0985 9.37497 12.196 9.39435 12.287 9.43203C12.3781 9.46971 12.4607 9.52495 12.5304 9.5946C12.6 9.66425 12.6553 9.74694 12.693 9.83795C12.7307 9.92896 12.75 10.0265 12.75 10.125V10.74Z" fill="white"/>
</g>
<defs>
<clipPath id="clip0_3538_1479">
<rect width="24" height="24" fill="white"/>
</clipPath>
</defs>
</svg>
