<svg width="16" height="16" viewBox="0 0 16 16" fill="none" xmlns="http://www.w3.org/2000/svg">
<g clip-path="url(#clip0_3490_1679)">
<path d="M15.7321 8.00006C15.7321 12.4353 12.0015 15.9966 7.506 15.7182C3.65427 15.4795 0.519337 12.3446 0.280937 8.49286C0.00227013 3.99739 3.5636 0.266724 7.9988 0.266724C9.21694 0.266724 10.3703 0.54779 11.3961 1.05099C11.6711 1.18592 11.7719 1.52832 11.6201 1.79446L11.6191 1.79632C11.4788 2.04219 11.1727 2.13366 10.9188 2.00859C9.90067 1.50726 8.73667 1.26326 7.50814 1.35099C4.28147 1.58112 1.64627 4.16912 1.35907 7.39126C1.00174 11.4017 4.2156 14.7678 8.17587 14.6643C11.5673 14.5758 14.3983 11.8862 14.6465 8.50272C14.7111 7.62379 14.6052 6.77286 14.3535 5.98832C14.2737 5.73952 14.3897 5.47099 14.6233 5.35419C14.9151 5.20832 15.2727 5.35419 15.3716 5.66486C15.6057 6.40112 15.7321 7.18566 15.7321 8.00006Z" fill="#08C1D2"/>
<path d="M4.10942 5.99259L8.32649 11.6985C8.64489 12.1294 9.29289 12.0921 9.56142 11.6275L15.6553 1.07872C15.9726 0.529386 15.2486 -0.0228807 14.8169 0.439519L8.46809 7.24005L4.78436 5.20112C4.28649 4.92565 3.76916 5.53205 4.10942 5.99259Z" fill="#3FA1FF"/>
</g>
<defs>
<clipPath id="clip0_3490_1679">
<rect width="16" height="16" fill="white"/>
</clipPath>
</defs>
</svg>
