<svg width="202" height="47" viewBox="0 0 202 47" fill="none" xmlns="http://www.w3.org/2000/svg">
<path d="M6.26172 18.935H7.43206L7.90019 18.7009L10.4749 17.0624V16.1262L7.90019 17.7646L6.26172 18.2328V18.935Z" fill="url(#paint0_linear_3482_4534)"/>
<path d="M23.3487 18.1566C21.4762 17.5659 19.1355 18.0335 18.1992 18.3412V17.5304C19.0575 17.2183 21.2421 16.7345 23.1146 17.2963L23.3487 18.1566Z" fill="#B4DBFF"/>
<g filter="url(#filter0_i_3482_4534)">
<path d="M18.8413 30.4044L14.8622 27.1274C13.2237 28.0637 8.54232 36.4901 11.3511 36.4901C13.5982 36.4901 17.2809 32.4329 18.8413 30.4044Z" fill="url(#paint1_linear_3482_4534)"/>
</g>
<g filter="url(#filter1_f_3482_4534)">
<path d="M10.4297 36.0565C10.5012 35.9214 11.9318 33.8958 12.0748 30.9248C12.9331 33.5176 11.3357 35.4263 10.4297 36.0565Z" fill="#48B7E4"/>
</g>
<path d="M9.41907 25.7257C9.41907 27.8605 8.14126 31.1302 7.46094 32.5346L7.597 32.8155C8.20929 32.1835 10.3644 27.1437 9.41907 25.7257Z" fill="#42B3E1"/>
<g filter="url(#filter2_ii_3482_4534)">
<path d="M10.5729 18.4044C10.807 27.065 13.3818 25.6606 18.5312 30.576C22.0422 38.5343 13.1476 39.2365 10.3388 36.4277C15.0202 29.1716 8.93442 24.7243 9.40256 25.8946C9.96432 26.8309 8.46628 30.8881 7.53001 32.6826C6.35967 30.576 3.31679 27.5331 2.14646 24.2561C-1.36456 32.6826 4.95527 36.1936 7.53002 37.1299C23.6807 54.2168 35.15 44.1519 39.5973 36.6617C40.7643 34.6963 42.4061 25.6605 42.1721 20.5111C42.1721 6.46699 32.1072 -2.48983 21.34 0.615289C10.5729 3.72041 9.16852 13.255 10.5729 18.4044Z" fill="url(#paint2_linear_3482_4534)"/>
</g>
<path d="M30.2032 9.0705C28.9701 8.73435 28.4643 9.07483 27.4853 9.31977C27.3714 9.34827 27.2568 9.26732 27.2708 9.15073C27.4016 8.06113 29.6618 7.98414 30.3894 8.84713C30.4942 8.97144 30.3601 9.11326 30.2032 9.0705Z" fill="#55A4DD"/>
<path d="M17.0273 22.0511C17.9636 22.0511 20.0702 25.4886 25.9219 21.0413C24.5175 25.0204 19.8362 26.893 17.0273 22.0511Z" fill="url(#paint3_linear_3482_4534)"/>
<path d="M18.7079 19.72C15.1007 22.4854 20.1509 26.864 25.9225 21.1027C24.7201 19.72 21.5938 17.5076 18.7079 19.72Z" fill="url(#paint4_linear_3482_4534)"/>
<g filter="url(#filter3_f_3482_4534)">
<path d="M35.8885 16.4202L36.3709 16.3361L37.775 15.8371L39.284 10.2369L39.7663 10.1528L40.4207 11.0553L39.6972 11.1814L38.4294 16.7397C38.4294 16.7397 36.5858 17.5694 36.0605 17.4068C35.5351 17.2442 35.6473 16.4622 35.8885 16.4202Z" fill="#50BCEA"/>
</g>
<g filter="url(#filter4_f_3482_4534)">
<path d="M23.5635 19.2511C21.6314 18.9592 19.3854 19.1839 18.1991 19.3834C18.0207 19.4134 17.8555 19.2774 17.8555 19.0965C17.8555 18.9619 17.9485 18.8453 18.0808 18.82C19.197 18.607 21.658 18.3297 23.6778 18.6387C23.8257 18.6613 23.9324 18.79 23.9324 18.9396C23.9324 19.1339 23.7557 19.2801 23.5635 19.2511Z" fill="#3BADF4"/>
</g>
<g filter="url(#filter5_f_3482_4534)">
<path d="M30.085 10.5333C33.7046 10.5333 36.6387 13.2582 36.6387 16.6193C36.6386 19.9802 33.7045 22.7052 30.085 22.7052C26.4655 22.7052 23.5314 19.9802 23.5312 16.6193C23.5312 13.2582 26.4654 10.5334 30.085 10.5333ZM30.085 11.0021C26.7239 11.0021 23.9991 13.5168 23.999 16.6193C23.999 19.7218 26.7239 22.2374 30.085 22.2374C33.4459 22.2373 36.1709 19.7217 36.1709 16.6193C36.1708 13.5169 33.4459 11.0022 30.085 11.0021Z" fill="#4AB3EF"/>
</g>
<path d="M29.4336 10.0406C33.0531 10.0408 35.9873 12.7656 35.9873 16.1266C35.9872 19.4875 33.053 22.2124 29.4336 22.2125C25.814 22.2125 22.879 19.4876 22.8789 16.1266C22.8789 12.7655 25.814 10.0406 29.4336 10.0406ZM29.4326 10.5084C26.0718 10.5086 23.3478 13.0233 23.3477 16.1256C23.3477 19.228 26.0717 21.7436 29.4326 21.7438C32.7937 21.7438 35.5186 19.2281 35.5186 16.1256C35.5184 13.0232 32.7936 10.5084 29.4326 10.5084Z" fill="url(#paint5_linear_3482_4534)"/>
<path d="M12.8086 11.9128C15.7819 11.9128 18.1924 14.6377 18.1924 17.9987C18.1923 21.3597 15.7818 24.0847 12.8086 24.0847C9.83553 24.0845 7.42588 21.3596 7.42578 17.9987C7.42578 14.6378 9.83547 11.913 12.8086 11.9128ZM12.8086 12.3816C10.0939 12.3816 7.89355 14.8972 7.89355 17.9997C7.89376 21.102 10.094 23.6169 12.8086 23.6169C15.5232 23.6169 17.7234 21.1021 17.7236 17.9997C17.7236 14.8972 15.5233 12.3816 12.8086 12.3816Z" fill="url(#paint6_linear_3482_4534)"/>
<g filter="url(#filter6_f_3482_4534)">
<path fill-rule="evenodd" clip-rule="evenodd" d="M12.585 12.8897C13.518 12.7325 14.4716 12.8827 15.3311 13.3223C16.1904 13.7619 16.9193 14.4723 17.4307 15.3682C17.942 16.2643 18.2139 17.3087 18.2139 18.375H17.7861C17.7861 15.548 15.7812 13.2561 13.3076 13.2559C12.166 13.2559 11.124 13.7443 10.333 14.5479L10.0703 14.209C10.7789 13.5052 11.6521 13.0469 12.585 12.8897Z" fill="#4AB3EF"/>
</g>
<path d="M35.0515 14.9556H35.5196L36.924 14.7215L39.2647 9.80606H39.7328L40.2009 10.7423H39.4988L37.3922 15.6578C37.3922 15.6578 35.5196 16.1259 35.0515 15.8918C34.5834 15.6578 34.8175 14.9556 35.0515 14.9556Z" fill="url(#paint7_linear_3482_4534)"/>
<path d="M23.1555 18.4349C21.4223 18.1553 19.4215 18.3706 18.3399 18.567C18.1603 18.5997 17.9922 18.4634 17.9922 18.2809C17.9922 18.149 18.0817 18.034 18.2109 18.0071C19.2311 17.7951 21.4513 17.5226 23.2804 17.8258C23.4254 17.8499 23.529 17.9771 23.529 18.1241C23.529 18.32 23.3488 18.4661 23.1555 18.4349Z" fill="url(#paint8_linear_3482_4534)"/>
<path d="M14.2558 10.1562C13.8876 9.88684 13.4081 9.92746 13.1059 10.0472C12.979 10.0975 12.8002 10.0545 12.821 9.91962C12.9253 9.24499 14.7624 8.99526 14.6133 10.0681C14.5914 10.2254 14.384 10.25 14.2558 10.1562Z" fill="#55A4DD"/>
<g filter="url(#filter7_f_3482_4534)">
<path d="M12.4477 39.0762C12.0388 38.7857 11.6506 38.4838 11.2854 38.179C9.89736 37.0206 8.95281 37.5086 10.4411 38.5351C12.2652 39.7932 14.105 40.254 12.4477 39.0762Z" fill="white" fill-opacity="0.8"/>
</g>
<g filter="url(#filter8_f_3482_4534)">
<path d="M17.987 21.3023C18.2423 20.3811 18.9443 20.1508 19.2634 20.1508C20.2207 19.863 21.0184 21.0144 20.6993 21.4462C20.3802 21.878 17.6679 22.4537 17.987 21.3023Z" fill="#B9E0FA"/>
</g>
<g filter="url(#filter9_f_3482_4534)">
<path d="M33.4102 28.9998C34.2174 30.3838 35.3128 33.3594 35.8317 35.2279C36.3787 37.1973 36.8696 29.6226 33.4102 28.9998Z" fill="white" fill-opacity="0.5"/>
</g>
<g filter="url(#filter10_f_3482_4534)">
<path d="M10.9453 21.4304C11.4676 20.8758 13.5782 18.2482 16.0372 20.5985C16.5594 21.0977 13.426 23.9262 10.9453 21.4304Z" fill="#FDFDFD" fill-opacity="0.5"/>
</g>
<path d="M34.1647 13.6776C33.9305 14.8484 33.3061 15.3167 32.9939 15.3167L32.5256 14.3801C33.3304 15.1907 34.3988 12.5068 34.1647 13.6776Z" fill="#173F66"/>
<path d="M32.7597 12.741C32.5256 13.2093 32.0573 13.5996 31.8231 13.6776L32.5256 14.1459C33.4622 13.4435 33.0909 12.0787 32.7597 12.741Z" fill="#173F66"/>
<path d="M31.589 12.2727C31.3548 12.741 30.8865 13.1313 30.6523 13.2093L31.589 13.4435C32.0573 12.741 31.8231 11.8044 31.589 12.2727Z" fill="#173F66"/>
<path d="M33.454 15.2701C33.1777 19.8039 29.9538 18.879 27.5927 18.8304C26.965 18.8175 26.3473 18.3503 26.3797 17.7233C26.6808 11.8884 32.3259 12.4127 33.3982 14.9097C33.4462 15.0213 33.4614 15.1488 33.454 15.2701Z" fill="url(#paint9_linear_3482_4534)"/>
<path d="M32.5284 16.2519C32.5284 17.9325 31.5921 18.8267 29.7196 18.8267C27.847 18.8267 27.3789 17.9325 27.3789 16.2519C27.3789 14.5714 28.5317 13.4431 29.9537 13.4431C31.3756 13.4431 32.5284 14.5714 32.5284 16.2519Z" fill="url(#paint10_linear_3482_4534)"/>
<path d="M32.5284 16.2469C32.5284 17.8544 31.5921 18.7097 29.7196 18.7097C27.847 18.7097 27.3789 17.8544 27.3789 16.2469C27.3789 14.6394 28.5317 13.5602 29.9537 13.5602C31.3756 13.5602 32.5284 14.6394 32.5284 16.2469Z" fill="url(#paint11_linear_3482_4534)"/>
<path d="M32.0609 16.2265C32.0609 17.5417 31.2948 18.2415 29.7628 18.2415C28.2307 18.2415 27.8477 17.5417 27.8477 16.2265C27.8477 14.9113 28.7908 14.0283 29.9543 14.0283C31.1177 14.0283 32.0609 14.9113 32.0609 16.2265Z" fill="url(#paint12_linear_3482_4534)"/>
<path d="M31.073 16.1979C31.073 17.2213 30.924 17.74 29.9022 17.74C28.8805 17.74 28.625 17.1955 28.625 16.1721C28.625 15.1488 28.8921 14.4876 29.668 14.4876C30.444 14.4876 31.073 15.1746 31.073 16.1979Z" fill="#142C57"/>
<path d="M26.3909 18.2326C26.1569 15.1897 28.9656 11.2105 33.413 14.7215C31.5404 10.9765 24.9865 13.0831 26.3909 18.2326Z" fill="#173F66"/>
<path d="M32.4766 14.0194C32.7107 14.2536 33.4512 14.9561 33.179 16.8293C34.1157 14.7219 33.1002 14.2536 32.4766 14.0194Z" fill="#173F66"/>
<ellipse cx="30.8396" cy="17.5283" rx="0.23369" ry="0.231835" transform="rotate(-0.11512 30.8396 17.5283)" fill="white"/>
<path d="M32.2424 14.9559C32.2428 15.1332 31.9125 15.0682 31.758 15.0685C31.6035 15.0688 31.5404 14.899 31.54 14.7217C31.5396 14.5444 31.6196 14.2537 31.7741 14.2534C31.9286 14.2531 32.2421 14.7786 32.2424 14.9559Z" fill="#EEF8FF"/>
<path d="M28.9677 14.085C29.6701 13.8508 29.6701 14.2536 29.6701 14.2536L29.2018 15.8927L27.7969 15.9582C27.7969 15.9582 28.2652 14.3191 28.9677 14.085Z" fill="#F0F8FF"/>
<g filter="url(#filter11_f_3482_4534)">
<path d="M2.04951 27.1274C1.81544 28.7659 2.31978 32.4211 5.56053 34.8516C9.30565 37.6605 3.21988 31.5747 2.04951 27.1274Z" fill="#99E7F7" fill-opacity="0.8"/>
</g>
<path d="M27.7969 18.9345C28.8892 18.6224 29.7354 18.5123 31.776 18.4664C32.9464 18.44 31.0738 19.1686 27.7969 18.9345Z" fill="#5BB5F4"/>
<g filter="url(#filter12_f_3482_4534)">
<path d="M26.0898 20.05C26.8495 19.4954 29.9195 16.8678 33.4962 19.2181C34.2558 19.7172 29.6981 22.5457 26.0898 20.05Z" fill="#EDF8FE" fill-opacity="0.5"/>
</g>
<path d="M16.5597 19.169C16.5455 19.539 11.8783 21.9778 11.4102 16.5942C11.6443 13.3173 16.7938 13.0832 16.5597 19.169Z" fill="url(#paint13_linear_3482_4534)"/>
<path d="M11.4097 16.8288C11.6438 16.2044 12.2328 14.5918 13.7512 14.7214C15.401 14.8621 10.9413 13.5506 11.4097 16.8288Z" fill="#173F66"/>
<path d="M16.5564 17.6558C16.2638 19.3617 15.5084 19.6055 14.2157 19.6055C13.0453 19.8492 11.875 18.6489 11.875 17.1684C11.875 15.6878 12.6304 14.4875 13.9231 14.4875C15.2158 14.4875 16.5564 15.7061 16.5564 17.6558Z" fill="url(#paint14_linear_3482_4534)"/>
<path d="M16.0934 17.0797C15.8885 18.4755 15.3598 18.6749 14.4549 18.6749C13.6356 18.8743 12.8164 17.8923 12.8164 16.6809C12.8164 15.4696 13.3452 14.4875 14.2501 14.4875C15.155 14.4875 16.0934 15.4845 16.0934 17.0797Z" fill="url(#paint15_linear_3482_4534)"/>
<path d="M15.6232 16.6845C15.5062 17.6154 15.2039 17.7484 14.6866 17.7484C14.2183 17.8813 13.75 17.2264 13.75 16.4185C13.75 15.6106 14.0523 14.9557 14.5695 14.9557C15.0868 14.9557 15.6232 15.6206 15.6232 16.6845Z" fill="#142C57"/>
<path d="M10.4727 14.9558C11.0344 15.5176 11.487 15.658 11.643 15.658C11.4089 15.424 10.9408 14.7218 10.9408 13.7855C11.3153 14.3472 12.1111 14.8778 12.3452 14.9558C12.3452 14.7218 11.643 14.0196 11.643 13.0833C12.0175 13.8323 12.4232 14.0196 12.5793 14.0196C13.0474 13.8635 14.4518 14.0196 15.3881 14.9558C15.3881 14.9558 14.3958 14.7067 13.7496 14.7218C13.1937 14.7347 12.3452 14.9558 12.3452 14.9558L11.643 15.658L11.3854 16.8119C11.142 16.6335 10.6539 16.0431 10.4727 14.9558Z" fill="#173F66"/>
<path d="M16.5605 18.2335C16.3264 15.8919 15.8581 15.4236 15.3897 14.9553L14.4531 14.7211C15.1556 15.1114 16.3264 15.8919 16.5605 18.2335Z" fill="#173F66"/>
<g filter="url(#filter13_f_3482_4534)">
<path d="M39.6006 31.6001H37.5742C37.6917 33.024 38.0324 35.7319 38.4553 35.1727C38.8782 34.6136 39.3951 32.558 39.6006 31.6001Z" fill="#56C2EF"/>
</g>
<path d="M11.6478 17.7652C11.6478 17.7652 11.4136 16.5945 11.6478 16.1262C11.5697 16.2042 11.32 16.5008 10.9453 16.1262C11.4136 17.5311 11.6478 17.7652 11.6478 17.7652Z" fill="#173F66"/>
<path d="M12.5781 19.6371C13.0464 19.4029 14.2172 19.6371 16.0905 19.6371C14.492 20.5795 12.8123 19.8712 12.5781 19.6371Z" fill="#82C9F7"/>
<path d="M15.6237 15.6582C15.6983 15.9229 15.0699 16.0803 14.8889 16.0803C14.6563 16.1458 14.4901 15.9188 14.4156 15.6542C14.341 15.3895 14.3401 14.9216 14.5727 14.856C14.7954 14.856 15.3895 15.4241 15.6237 15.6582Z" fill="#EEF8FF"/>
<path d="M14.2181 15.1894C14.2181 15.0601 14.1133 14.9553 13.9839 14.9553C13.8546 14.9553 13.5156 15.0601 13.5156 15.1894C13.5156 15.3188 13.5156 15.6577 13.9839 15.6577C14.1133 15.6577 14.2181 15.3188 14.2181 15.1894Z" fill="#EEF8FF"/>
<ellipse cx="13.6611" cy="18.6539" rx="0.239765" ry="0.348485" transform="rotate(-29.3703 13.6611 18.6539)" fill="#EEF8FF"/>
<ellipse cx="13.0748" cy="15.7016" rx="0.235019" ry="0.256499" transform="rotate(-5.46049 13.0748 15.7016)" fill="#EEF8FF"/>
<g filter="url(#filter14_f_3482_4534)">
<path d="M36.7645 39.665L35.5978 40.8089L32.6137 28.7979L36.7645 39.665Z" fill="#48B7E5"/>
</g>
<g filter="url(#filter15_ii_3482_4534)">
<path d="M36.6644 27.8623C34.5578 25.5216 32.4512 27.8623 33.1534 29.5008C34.2457 33.1678 36.8985 40.6892 38.771 41.4382C41.1117 42.3745 39.7072 31.8415 36.6644 27.8623Z" fill="url(#paint16_linear_3482_4534)"/>
</g>
<path d="M201.111 13.1336L189.462 40.5253H183.338L187.598 31.073L180.043 13.1336C180.043 13.1336 183.821 11.6808 186.733 14.856C188.068 16.3121 190.693 24.7493 190.693 24.7493C190.693 24.7493 193.284 16.9332 194.669 14.856C196.545 12.0416 201.111 13.1336 201.111 13.1336Z" fill="#033A62"/>
<path d="M171.889 13.7662C174.019 13.7662 175.727 14.4762 177.014 15.8963C178.301 17.2942 178.945 19.2246 178.945 21.6875V34.2018C178.945 34.2018 174.459 34.8259 173.835 31.9136C173.287 29.3545 173.287 22.453 173.287 22.453C173.287 21.2104 172.965 20.2452 172.321 19.5574C171.678 18.8695 170.813 18.5256 169.725 18.5256C168.638 18.5256 167.773 18.8695 167.129 19.5574C166.486 20.2452 166.164 21.2104 166.164 22.453V32.5377H160.473V7.90842H166.164V16.4621C166.741 15.6411 167.529 14.9866 168.527 14.4984C169.526 14.0103 170.646 13.7662 171.889 13.7662Z" fill="#033A62"/>
<path d="M143.574 16.5952C144.129 15.7298 144.894 15.0309 145.871 14.4984C146.847 13.9658 147.99 13.6996 149.299 13.6996C150.83 13.6996 152.217 14.0879 153.459 14.8645C154.702 15.6411 155.678 16.7505 156.388 18.1928C157.12 19.635 157.486 21.3102 157.486 23.2185C157.486 25.1267 157.12 26.813 156.388 28.2774C155.678 29.7197 154.702 30.8402 153.459 31.639C152.217 32.4156 150.83 32.8039 149.299 32.8039C148.012 32.8039 146.869 32.5376 145.871 32.0051C144.894 31.4726 144.129 30.7847 143.574 29.9416V41.3909H137.883V13.9658H144.296L143.574 16.5952ZM151.695 23.2185C151.695 21.7984 151.296 20.689 150.497 19.8902C149.72 19.0692 148.755 18.6587 147.601 18.6587C146.47 18.6587 145.505 19.0692 144.706 19.8902C143.929 20.7112 143.541 21.8317 143.541 23.2517C143.541 24.6718 143.929 25.7923 144.706 26.6133C145.505 27.4343 146.47 27.8448 147.601 27.8448C148.733 27.8448 149.698 27.4343 150.497 26.6133C151.296 25.7701 151.695 24.6385 151.695 23.2185Z" fill="#033A62"/>
<path d="M122.348 13.6996C123.657 13.6996 124.8 13.9658 125.776 14.4984C126.774 15.0309 127.54 15.7298 128.072 16.5952L127.237 13.9658H133.764V32.5044C133.764 34.2129 133.42 35.755 132.732 37.1307C132.066 38.5285 131.035 39.638 129.637 40.4589C128.261 41.2799 126.541 41.6904 124.478 41.6904C121.726 41.6904 119.496 41.0358 117.788 39.7267C116.079 38.4398 115.588 37.0633 115.588 35.4499C115.588 33.8365 119.837 33.9355 120.164 34.6178C120.492 35.3001 121.083 35.7328 121.749 36.1322C122.414 36.5538 123.235 36.7645 124.212 36.7645C125.388 36.7645 126.319 36.4206 127.007 35.7328C127.717 35.0671 128.072 33.991 128.072 32.5044V29.875C127.518 30.7404 126.752 31.4504 125.776 32.0051C124.8 32.5376 123.657 32.8039 122.348 32.8039C120.817 32.8039 119.43 32.4156 118.187 31.639C116.945 30.8402 115.957 29.7197 115.225 28.2774C114.515 26.813 114.16 25.1267 114.16 23.2185C114.16 21.3102 114.515 19.635 115.225 18.1928C115.957 16.7505 116.945 15.6411 118.187 14.8645C119.43 14.0879 120.817 13.6996 122.348 13.6996ZM128.072 23.2517C128.072 21.8317 127.673 20.7112 126.874 19.8902C126.098 19.0692 125.143 18.6587 124.012 18.6587C122.88 18.6587 121.915 19.0692 121.116 19.8902C120.34 20.689 119.951 21.7984 119.951 23.2185C119.951 24.6385 120.34 25.7701 121.116 26.6133C121.915 27.4343 122.88 27.8448 124.012 27.8448C125.143 27.8448 126.098 27.4343 126.874 26.6133C127.673 25.7923 128.072 24.6718 128.072 23.2517Z" fill="#033A62"/>
<path d="M104.183 13.7662C106.358 13.7662 108.089 14.4762 109.375 15.8963C110.685 17.2941 111.339 19.2245 111.339 21.6875V33.9938C111.339 33.9938 106.229 34.4098 105.813 31.7056C105.494 29.6306 105.681 22.453 105.681 22.453C105.681 21.2104 105.359 20.2452 104.716 19.5574C104.072 18.8695 103.207 18.5256 102.12 18.5256C101.033 18.5256 100.167 18.8695 99.5237 19.5574C98.8803 20.2452 98.5585 21.2104 98.5585 22.453V32.5377H92.8672V13.9659H99.1569L98.5585 16.4288C99.1354 15.6078 99.912 14.9644 100.888 14.4984C101.865 14.0102 102.963 13.7662 104.183 13.7662Z" fill="#033A62"/>
<path d="M69.1484 23.2185C69.1484 21.3102 69.5035 19.635 70.2135 18.1928C70.9457 16.7505 71.9331 15.6411 73.1757 14.8645C74.4182 14.0879 75.805 13.6996 77.336 13.6996C78.6451 13.6996 79.7878 13.9658 80.7641 14.4984C81.7626 15.0309 82.5281 15.7298 83.0606 16.5952L82.5177 13.9658H88.752V32.5376C88.752 32.5376 84.4899 34.0228 83.5578 32.0051C83.1272 31.073 83.0606 29.9083 83.0606 29.9083C82.5059 30.7736 81.7293 31.4726 80.7308 32.0051C79.7545 32.5376 78.6118 32.8039 77.3027 32.8039C75.7939 32.8039 74.4182 32.4156 73.1757 31.639C71.9331 30.8402 70.9457 29.7197 70.2135 28.2774C69.5035 26.813 69.1484 25.1267 69.1484 23.2185ZM83.0606 23.2517C83.0606 21.8317 82.6612 20.7112 81.8625 19.8902C81.0859 19.0692 80.1318 18.6587 79.0001 18.6587C77.8685 18.6587 76.9033 19.0692 76.1045 19.8902C75.3279 20.689 74.9396 21.7984 74.9396 23.2185C74.9396 24.6385 75.3279 25.7701 76.1045 26.6133C76.9033 27.4343 77.8685 27.8448 79.0001 27.8448C80.1318 27.8448 81.0859 27.4343 81.8625 26.6133C82.6612 25.7923 83.0606 24.6718 83.0606 23.2517Z" fill="#033A62"/>
<path d="M58.5911 27.1291H66.9118V32.5376H52.75V4.87128C52.75 4.87128 58.5398 6.35767 58.5911 8.57968C58.7409 15.0577 58.5911 27.1291 58.5911 27.1291Z" fill="#033A62"/>
<defs>
<filter id="filter0_i_3482_4534" x="10.4727" y="27.1274" width="8.36719" height="11.3627" filterUnits="userSpaceOnUse" color-interpolation-filters="sRGB">
<feFlood flood-opacity="0" result="BackgroundImageFix"/>
<feBlend mode="normal" in="SourceGraphic" in2="BackgroundImageFix" result="shape"/>
<feColorMatrix in="SourceAlpha" type="matrix" values="0 0 0 0 0 0 0 0 0 0 0 0 0 0 0 0 0 0 127 0" result="hardAlpha"/>
<feOffset dy="2"/>
<feGaussianBlur stdDeviation="2"/>
<feComposite in2="hardAlpha" operator="arithmetic" k2="-1" k3="1"/>
<feColorMatrix type="matrix" values="0 0 0 0 0.0425347 0 0 0 0 0.549444 0 0 0 0 0.729167 0 0 0 0.4 0"/>
<feBlend mode="normal" in2="shape" result="effect1_innerShadow_3482_4534"/>
</filter>
<filter id="filter1_f_3482_4534" x="8.42969" y="28.9248" width="5.89062" height="9.13165" filterUnits="userSpaceOnUse" color-interpolation-filters="sRGB">
<feFlood flood-opacity="0" result="BackgroundImageFix"/>
<feBlend mode="normal" in="SourceGraphic" in2="BackgroundImageFix" result="shape"/>
<feGaussianBlur stdDeviation="1" result="effect1_foregroundBlur_3482_4534"/>
</filter>
<filter id="filter2_ii_3482_4534" x="1.10938" y="-2" width="41.0859" height="50.5045" filterUnits="userSpaceOnUse" color-interpolation-filters="sRGB">
<feFlood flood-opacity="0" result="BackgroundImageFix"/>
<feBlend mode="normal" in="SourceGraphic" in2="BackgroundImageFix" result="shape"/>
<feColorMatrix in="SourceAlpha" type="matrix" values="0 0 0 0 0 0 0 0 0 0 0 0 0 0 0 0 0 0 127 0" result="hardAlpha"/>
<feOffset dy="2"/>
<feGaussianBlur stdDeviation="1"/>
<feComposite in2="hardAlpha" operator="arithmetic" k2="-1" k3="1"/>
<feColorMatrix type="matrix" values="0 0 0 0 0.34902 0 0 0 0 0.729412 0 0 0 0 1 0 0 0 0.6 0"/>
<feBlend mode="normal" in2="shape" result="effect1_innerShadow_3482_4534"/>
<feColorMatrix in="SourceAlpha" type="matrix" values="0 0 0 0 0 0 0 0 0 0 0 0 0 0 0 0 0 0 127 0" result="hardAlpha"/>
<feOffset dy="-2"/>
<feGaussianBlur stdDeviation="2.5"/>
<feComposite in2="hardAlpha" operator="arithmetic" k2="-1" k3="1"/>
<feColorMatrix type="matrix" values="0 0 0 0 0.380392 0 0 0 0 0.745098 0 0 0 0 0.937255 0 0 0 0.1 0"/>
<feBlend mode="normal" in2="effect1_innerShadow_3482_4534" result="effect2_innerShadow_3482_4534"/>
</filter>
<filter id="filter3_f_3482_4534" x="34.6875" y="9.15277" width="6.73438" height="9.27515" filterUnits="userSpaceOnUse" color-interpolation-filters="sRGB">
<feFlood flood-opacity="0" result="BackgroundImageFix"/>
<feBlend mode="normal" in="SourceGraphic" in2="BackgroundImageFix" result="shape"/>
<feGaussianBlur stdDeviation="0.5" result="effect1_foregroundBlur_3482_4534"/>
</filter>
<filter id="filter4_f_3482_4534" x="16.8555" y="17.5008" width="8.07812" height="2.88678" filterUnits="userSpaceOnUse" color-interpolation-filters="sRGB">
<feFlood flood-opacity="0" result="BackgroundImageFix"/>
<feBlend mode="normal" in="SourceGraphic" in2="BackgroundImageFix" result="shape"/>
<feGaussianBlur stdDeviation="0.5" result="effect1_foregroundBlur_3482_4534"/>
</filter>
<filter id="filter5_f_3482_4534" x="22.5312" y="9.53333" width="15.1094" height="14.1719" filterUnits="userSpaceOnUse" color-interpolation-filters="sRGB">
<feFlood flood-opacity="0" result="BackgroundImageFix"/>
<feBlend mode="normal" in="SourceGraphic" in2="BackgroundImageFix" result="shape"/>
<feGaussianBlur stdDeviation="0.5" result="effect1_foregroundBlur_3482_4534"/>
</filter>
<filter id="filter6_f_3482_4534" x="9.07031" y="11.8291" width="10.1445" height="7.54596" filterUnits="userSpaceOnUse" color-interpolation-filters="sRGB">
<feFlood flood-opacity="0" result="BackgroundImageFix"/>
<feBlend mode="normal" in="SourceGraphic" in2="BackgroundImageFix" result="shape"/>
<feGaussianBlur stdDeviation="0.5" result="effect1_foregroundBlur_3482_4534"/>
</filter>
<filter id="filter7_f_3482_4534" x="6.6875" y="34.5081" width="9.40625" height="8.24884" filterUnits="userSpaceOnUse" color-interpolation-filters="sRGB">
<feFlood flood-opacity="0" result="BackgroundImageFix"/>
<feBlend mode="normal" in="SourceGraphic" in2="BackgroundImageFix" result="shape"/>
<feGaussianBlur stdDeviation="1.5" result="effect1_foregroundBlur_3482_4534"/>
</filter>
<filter id="filter8_f_3482_4534" x="15.9609" y="18.1052" width="6.80859" height="5.87326" filterUnits="userSpaceOnUse" color-interpolation-filters="sRGB">
<feFlood flood-opacity="0" result="BackgroundImageFix"/>
<feBlend mode="normal" in="SourceGraphic" in2="BackgroundImageFix" result="shape"/>
<feGaussianBlur stdDeviation="1" result="effect1_foregroundBlur_3482_4534"/>
</filter>
<filter id="filter9_f_3482_4534" x="28.4102" y="23.9998" width="12.8086" height="16.5539" filterUnits="userSpaceOnUse" color-interpolation-filters="sRGB">
<feFlood flood-opacity="0" result="BackgroundImageFix"/>
<feBlend mode="normal" in="SourceGraphic" in2="BackgroundImageFix" result="shape"/>
<feGaussianBlur stdDeviation="2.5" result="effect1_foregroundBlur_3482_4534"/>
</filter>
<filter id="filter10_f_3482_4534" x="8.94531" y="17.6369" width="9.14844" height="6.80881" filterUnits="userSpaceOnUse" color-interpolation-filters="sRGB">
<feFlood flood-opacity="0" result="BackgroundImageFix"/>
<feBlend mode="normal" in="SourceGraphic" in2="BackgroundImageFix" result="shape"/>
<feGaussianBlur stdDeviation="1" result="effect1_foregroundBlur_3482_4534"/>
</filter>
<filter id="filter11_f_3482_4534" x="0" y="25.1274" width="8.76562" height="12.4382" filterUnits="userSpaceOnUse" color-interpolation-filters="sRGB">
<feFlood flood-opacity="0" result="BackgroundImageFix"/>
<feBlend mode="normal" in="SourceGraphic" in2="BackgroundImageFix" result="shape"/>
<feGaussianBlur stdDeviation="1" result="effect1_foregroundBlur_3482_4534"/>
</filter>
<filter id="filter12_f_3482_4534" x="24.0898" y="16.2565" width="11.4883" height="6.80881" filterUnits="userSpaceOnUse" color-interpolation-filters="sRGB">
<feFlood flood-opacity="0" result="BackgroundImageFix"/>
<feBlend mode="normal" in="SourceGraphic" in2="BackgroundImageFix" result="shape"/>
<feGaussianBlur stdDeviation="1" result="effect1_foregroundBlur_3482_4534"/>
</filter>
<filter id="filter13_f_3482_4534" x="35.5742" y="29.6001" width="6.02734" height="7.64755" filterUnits="userSpaceOnUse" color-interpolation-filters="sRGB">
<feFlood flood-opacity="0" result="BackgroundImageFix"/>
<feBlend mode="normal" in="SourceGraphic" in2="BackgroundImageFix" result="shape"/>
<feGaussianBlur stdDeviation="1" result="effect1_foregroundBlur_3482_4534"/>
</filter>
<filter id="filter14_f_3482_4534" x="30.6133" y="26.7979" width="8.15234" height="16.011" filterUnits="userSpaceOnUse" color-interpolation-filters="sRGB">
<feFlood flood-opacity="0" result="BackgroundImageFix"/>
<feBlend mode="normal" in="SourceGraphic" in2="BackgroundImageFix" result="shape"/>
<feGaussianBlur stdDeviation="1" result="effect1_foregroundBlur_3482_4534"/>
</filter>
<filter id="filter15_ii_3482_4534" x="33.0156" y="24.8742" width="8.92578" height="16.6226" filterUnits="userSpaceOnUse" color-interpolation-filters="sRGB">
<feFlood flood-opacity="0" result="BackgroundImageFix"/>
<feBlend mode="normal" in="SourceGraphic" in2="BackgroundImageFix" result="shape"/>
<feColorMatrix in="SourceAlpha" type="matrix" values="0 0 0 0 0 0 0 0 0 0 0 0 0 0 0 0 0 0 127 0" result="hardAlpha"/>
<feOffset dy="-2"/>
<feGaussianBlur stdDeviation="4"/>
<feComposite in2="hardAlpha" operator="arithmetic" k2="-1" k3="1"/>
<feColorMatrix type="matrix" values="0 0 0 0 0.218698 0 0 0 0 0.714874 0 0 0 0 0.920833 0 0 0 0.5 0"/>
<feBlend mode="normal" in2="shape" result="effect1_innerShadow_3482_4534"/>
<feColorMatrix in="SourceAlpha" type="matrix" values="0 0 0 0 0 0 0 0 0 0 0 0 0 0 0 0 0 0 127 0" result="hardAlpha"/>
<feOffset dx="2"/>
<feGaussianBlur stdDeviation="2"/>
<feComposite in2="hardAlpha" operator="arithmetic" k2="-1" k3="1"/>
<feColorMatrix type="matrix" values="0 0 0 0 0.388235 0 0 0 0 0.905882 0 0 0 0 0.964706 0 0 0 1 0"/>
<feBlend mode="normal" in2="effect1_innerShadow_3482_4534" result="effect2_innerShadow_3482_4534"/>
</filter>
<linearGradient id="paint0_linear_3482_4534" x1="8.36833" y1="16.1262" x2="8.36833" y2="18.935" gradientUnits="userSpaceOnUse">
<stop stop-color="#10BFCF"/>
<stop offset="1" stop-color="#A7F7FB"/>
</linearGradient>
<linearGradient id="paint1_linear_3482_4534" x1="21.942" y1="28.0637" x2="22.1761" y2="37.4264" gradientUnits="userSpaceOnUse">
<stop stop-color="#5FC7F5"/>
<stop offset="1" stop-color="#ACF0FC"/>
</linearGradient>
<linearGradient id="paint2_linear_3482_4534" x1="21.652" y1="0.443463" x2="21.652" y2="46.5045" gradientUnits="userSpaceOnUse">
<stop offset="0.0292509" stop-color="#EEF8FF"/>
<stop offset="0.396124" stop-color="#5AB4F3"/>
<stop offset="1" stop-color="#68F0F8"/>
</linearGradient>
<linearGradient id="paint3_linear_3482_4534" x1="21.5917" y1="21.2937" x2="21.5917" y2="24.9875" gradientUnits="userSpaceOnUse">
<stop stop-color="#011F44"/>
<stop offset="1" stop-color="#44B5ED"/>
</linearGradient>
<linearGradient id="paint4_linear_3482_4534" x1="21.7093" y1="18.7814" x2="21.7093" y2="23.9309" gradientUnits="userSpaceOnUse">
<stop stop-color="#5BB7F4"/>
<stop offset="1" stop-color="#B5E0FF"/>
</linearGradient>
<linearGradient id="paint5_linear_3482_4534" x1="29.4331" y1="10.0406" x2="29.4331" y2="22.2125" gradientUnits="userSpaceOnUse">
<stop stop-color="#E0F2FF"/>
<stop offset="1" stop-color="#1465E1"/>
</linearGradient>
<linearGradient id="paint6_linear_3482_4534" x1="12.8091" y1="11.9128" x2="12.8091" y2="24.0847" gradientUnits="userSpaceOnUse">
<stop stop-color="#E0F2FF"/>
<stop offset="1" stop-color="#1465E1"/>
</linearGradient>
<linearGradient id="paint7_linear_3482_4534" x1="40.9031" y1="9.33792" x2="37.4911" y2="15.9574" gradientUnits="userSpaceOnUse">
<stop stop-color="#08E5F4"/>
<stop offset="1" stop-color="#94F8FF"/>
</linearGradient>
<linearGradient id="paint8_linear_3482_4534" x1="20.7606" y1="17.6908" x2="20.7606" y2="18.6361" gradientUnits="userSpaceOnUse">
<stop stop-color="#E0F2FF"/>
<stop offset="1" stop-color="#1465E1"/>
</linearGradient>
<linearGradient id="paint9_linear_3482_4534" x1="29.9274" y1="13.1618" x2="28.2635" y2="18.9346" gradientUnits="userSpaceOnUse">
<stop stop-color="#173F66"/>
<stop offset="0.693722" stop-color="white"/>
</linearGradient>
<linearGradient id="paint10_linear_3482_4534" x1="29.9537" y1="13.4431" x2="30.1369" y2="17.5303" gradientUnits="userSpaceOnUse">
<stop stop-color="#054878"/>
<stop offset="1" stop-color="#A3C9ED"/>
</linearGradient>
<linearGradient id="paint11_linear_3482_4534" x1="29.9537" y1="13.5602" x2="30.1214" y2="17.4704" gradientUnits="userSpaceOnUse">
<stop stop-color="#054878"/>
<stop offset="1" stop-color="#B4DBFF"/>
</linearGradient>
<linearGradient id="paint12_linear_3482_4534" x1="29.9543" y1="14.0283" x2="29.9543" y2="18.2415" gradientUnits="userSpaceOnUse">
<stop stop-color="#0F6FB3"/>
<stop offset="1" stop-color="#2A8CD2"/>
</linearGradient>
<linearGradient id="paint13_linear_3482_4534" x1="14.219" y1="14.7217" x2="11.9742" y2="19.6648" gradientUnits="userSpaceOnUse">
<stop stop-color="#173F66"/>
<stop offset="0.693722" stop-color="white"/>
</linearGradient>
<linearGradient id="paint14_linear_3482_4534" x1="14.2157" y1="14.4875" x2="14.4001" y2="18.3962" gradientUnits="userSpaceOnUse">
<stop stop-color="#054878"/>
<stop offset="1" stop-color="#B4DBFF"/>
</linearGradient>
<linearGradient id="paint15_linear_3482_4534" x1="14.4549" y1="14.4875" x2="14.4549" y2="18.7008" gradientUnits="userSpaceOnUse">
<stop stop-color="#173F66"/>
<stop offset="1" stop-color="#2A8CD2"/>
</linearGradient>
<linearGradient id="paint16_linear_3482_4534" x1="36.4792" y1="26.8742" x2="36.4792" y2="41.4969" gradientUnits="userSpaceOnUse">
<stop stop-color="#60CCF6"/>
<stop offset="1" stop-color="#BEF8FF"/>
</linearGradient>
</defs>
</svg>
