<svg width="336" height="78" viewBox="0 0 336 78" fill="none" xmlns="http://www.w3.org/2000/svg">
<path d="M9.13672 31.704H11.0963L11.8802 31.3121L16.1913 28.5687V27.001L11.8802 29.7444L9.13672 30.5282V31.704Z" fill="url(#paint0_linear_3482_5051)"/>
<path d="M37.7472 30.4008C34.6119 29.4118 30.6927 30.1948 29.125 30.7099V29.3523C30.562 28.8298 34.2199 28.0198 37.3553 28.9604L37.7472 30.4008Z" fill="#B4DBFF"/>
<g filter="url(#filter0_i_3482_5051)">
<path d="M30.2037 50.9092L23.5411 45.4224C20.7977 46.99 12.9593 61.0991 17.6623 61.0991C21.4247 61.0991 27.5909 54.3059 30.2037 50.9092Z" fill="url(#paint1_linear_3482_5051)"/>
</g>
<g filter="url(#filter1_f_3482_5051)">
<path d="M16.1172 60.3721C16.237 60.146 18.6322 56.7543 18.8718 51.7798C20.3089 56.1212 17.6342 59.3169 16.1172 60.3721Z" fill="#48B7E4"/>
</g>
<path d="M14.4193 43.0747C14.4193 46.6491 12.2797 52.1238 11.1406 54.4754L11.3684 54.9457C12.3937 53.8875 16.0021 45.4489 14.4193 43.0747Z" fill="#42B3E1"/>
<g filter="url(#filter2_ii_3482_5051)">
<path d="M16.3612 30.8161C16.7532 45.3171 21.0643 42.9656 29.6864 51.1959C35.5652 64.5211 20.6723 65.6969 15.9693 60.9939C23.8076 48.8444 13.6177 41.3979 14.4016 43.3575C15.3422 44.9252 12.8339 51.7184 11.2662 54.7232C9.30663 51.1959 4.21168 46.1009 2.25211 40.6141C-3.62668 54.7232 6.95512 60.6019 11.2662 62.1696C38.3087 90.7797 57.5127 73.9272 64.9592 61.3858C66.9131 58.095 69.6622 42.9656 69.2703 34.3434C69.2703 10.8282 52.4178 -4.16894 34.3895 1.03023C16.3612 6.22939 14.0097 22.1939 16.3612 30.8161Z" fill="url(#paint2_linear_3482_5051)"/>
</g>
<path d="M49.4755 15.26C47.1632 14.5605 46.3318 15.2126 44.5303 15.6399C44.416 15.6669 44.3027 15.5876 44.3043 15.4701C44.3324 13.4163 48.6522 13.3182 49.6887 15.0257C49.7731 15.1647 49.6312 15.307 49.4755 15.26Z" fill="#55A4DD"/>
<path d="M27.1641 36.9222C28.7317 36.9222 32.259 42.6779 42.057 35.2314C39.7055 41.8941 31.8671 45.0294 27.1641 36.9222Z" fill="url(#paint3_linear_3482_5051)"/>
<path d="M29.9744 33.0188C23.9344 37.6492 32.3905 44.9806 42.0544 35.334C40.041 33.0188 34.8064 29.3144 29.9744 33.0188Z" fill="url(#paint4_linear_3482_5051)"/>
<g filter="url(#filter3_f_3482_5051)">
<path d="M58.7455 27.494L59.5532 27.3532L61.9043 26.5178L64.4309 17.1408L65.2385 17L66.3342 18.5112L65.1227 18.7224L62.9999 28.029C62.9999 28.029 59.913 29.4182 59.0334 29.146C58.1538 28.8738 58.3417 27.5644 58.7455 27.494Z" fill="#50BCEA"/>
</g>
<g filter="url(#filter4_f_3482_5051)">
<path d="M38.1082 32.2338C34.8732 31.7451 31.1124 32.1213 29.1262 32.4554C28.8274 32.5056 28.5508 32.2779 28.5508 31.975C28.5508 31.7496 28.7066 31.5542 28.928 31.512C30.797 31.1552 34.9177 30.691 38.2996 31.2084C38.5472 31.2462 38.7259 31.4617 38.7259 31.7123C38.7259 32.0376 38.4299 32.2824 38.1082 32.2338Z" fill="#3BADF4"/>
</g>
<g filter="url(#filter5_f_3482_5051)">
<path fill-rule="evenodd" clip-rule="evenodd" d="M49.0244 17.6367C55.085 17.6368 59.998 22.1985 59.998 27.8262C59.998 33.4539 55.085 38.0166 49.0244 38.0166C42.9638 38.0166 38.0508 33.4539 38.0508 27.8262C38.0508 22.1985 42.9638 17.6367 49.0244 17.6367ZM49.0254 18.4209C43.3979 18.4211 38.8359 22.6325 38.8359 27.8271C38.8362 33.0216 43.398 37.2322 49.0254 37.2324C54.653 37.2324 59.2156 33.0218 59.2158 27.8271C59.2158 22.6323 54.6531 18.4209 49.0254 18.4209Z" fill="#4AB3EF"/>
</g>
<path d="M47.9346 16.8115C53.9952 16.8115 58.9082 21.3733 58.9082 27.001C58.9082 32.6287 53.9952 37.1904 47.9346 37.1904C41.8741 37.1903 36.9609 32.6286 36.9609 27.001C36.9609 21.3734 41.8741 16.8117 47.9346 16.8115ZM47.9365 17.5947C42.3089 17.5947 37.7463 21.8053 37.7461 27C37.7461 32.1948 42.3088 36.4062 47.9365 36.4062C53.5642 36.4062 58.126 32.1948 58.126 27C58.1258 21.8054 53.5641 17.5948 47.9365 17.5947Z" fill="url(#paint5_linear_3482_5051)"/>
<path fill-rule="evenodd" clip-rule="evenodd" d="M20.1123 19.9468C25.0905 19.9469 29.1258 24.5087 29.126 30.1362C29.126 35.7639 25.0906 40.3265 20.1123 40.3267C15.1339 40.3267 11.0977 35.764 11.0977 30.1362C11.0978 24.5087 15.134 19.9468 20.1123 19.9468ZM20.1133 20.7319C15.568 20.7321 11.8838 24.9435 11.8838 30.1382C11.8838 35.3328 15.568 39.5442 20.1133 39.5444C24.6587 39.5444 28.3437 35.333 28.3438 30.1382C28.3438 24.9434 24.6588 20.7319 20.1133 20.7319Z" fill="url(#paint6_linear_3482_5051)"/>
<g filter="url(#filter6_f_3482_5051)">
<path fill-rule="evenodd" clip-rule="evenodd" d="M19.7266 21.5824C21.2887 21.3192 22.8853 21.5709 24.3242 22.307C25.763 23.0431 26.9837 24.2326 27.8398 25.7328C28.696 27.2331 29.1514 28.9806 29.1514 30.766H28.4346C28.4341 26.0329 25.077 22.1959 20.9355 22.1957C19.0246 22.1957 17.2804 23.013 15.9561 24.3578L15.5156 23.7904C16.7022 22.6119 18.1644 21.8456 19.7266 21.5824Z" fill="#4AB3EF"/>
</g>
<path d="M57.3431 25.0412H58.127L60.4785 24.6492L64.3977 16.4189H65.1814L65.9652 17.9866H64.7896L61.2623 26.2169C61.2623 26.2169 58.1269 27.0008 57.3431 26.6088C56.5594 26.2169 56.9513 25.0412 57.3431 25.0412Z" fill="url(#paint7_linear_3482_5051)"/>
<path d="M37.4227 30.8676C34.5206 30.3995 31.1706 30.7599 29.3595 31.0888C29.0589 31.1434 28.7773 30.9153 28.7773 30.6098C28.7773 30.3888 28.9272 30.1963 29.1436 30.1513C30.8517 29.7963 34.5693 29.34 37.6318 29.8478C37.8747 29.888 38.048 30.101 38.048 30.3472C38.048 30.6751 37.7464 30.9198 37.4227 30.8676Z" fill="url(#paint8_linear_3482_5051)"/>
<path d="M22.7087 17.1672C22.0072 16.4731 20.9476 16.6228 20.4238 16.9013C20.3033 16.9654 20.132 16.9313 20.1148 16.7959C19.9481 15.4794 23.6656 14.9214 23.0671 17.1013C23.0251 17.2545 22.8216 17.279 22.7087 17.1672Z" fill="#55A4DD"/>
<g filter="url(#filter7_f_3482_5051)">
<path d="M19.4951 65.4282C17.7793 64.2089 16.281 62.8707 15.0603 61.6341C13.7902 60.3475 12.3554 60.9838 13.5698 62.3232C16.8364 65.9261 23.0961 67.9874 19.4951 65.4282Z" fill="white" fill-opacity="0.8"/>
</g>
<g filter="url(#filter8_f_3482_5051)">
<path d="M28.7741 35.6684C29.2015 34.126 30.377 33.7405 30.9113 33.7405C32.5141 33.2585 33.8499 35.1864 33.3156 35.9094C32.7813 36.6324 28.2398 37.5963 28.7741 35.6684Z" fill="#B9E0FA"/>
</g>
<g filter="url(#filter9_f_3482_5051)">
<path d="M54.5977 48.5576C55.9492 50.875 57.7835 55.8573 58.6523 58.9857C59.5682 62.2833 60.39 49.6004 54.5977 48.5576Z" fill="white" fill-opacity="0.5"/>
</g>
<g filter="url(#filter10_f_3482_5051)">
<path d="M16.9766 35.8829C17.851 34.9543 21.3851 30.5547 25.5023 34.49C26.3767 35.3258 21.1301 40.0618 16.9766 35.8829Z" fill="#FDFDFD" fill-opacity="0.5"/>
</g>
<path d="M55.8615 22.9018C55.4694 24.8622 54.4239 25.6463 53.9011 25.6463L53.117 24.078C54.4646 25.4352 56.2535 20.9415 55.8615 22.9018Z" fill="#173F66"/>
<path d="M53.5091 21.3336C53.117 22.1177 52.3329 22.7711 51.9408 22.9018L53.117 23.686C54.6853 22.5098 54.0635 20.2246 53.5091 21.3336Z" fill="#173F66"/>
<path d="M51.5487 20.5494C51.1567 21.3336 50.3725 21.987 49.9805 22.1177L51.5487 22.5098C52.3329 21.3336 51.9408 19.7653 51.5487 20.5494Z" fill="#173F66"/>
<path d="M54.674 25.4416C54.2347 33.7207 48.0371 31.344 44.0367 31.5375C43.4096 31.5678 42.8003 31.1184 42.8008 30.4906C42.8095 19.7664 52.9055 20.6854 54.6204 25.0788C54.6646 25.1919 54.6805 25.3203 54.674 25.4416Z" fill="url(#paint9_linear_3482_5051)"/>
<path d="M53.1183 27.2118C53.1183 30.0257 51.5506 31.5229 48.4153 31.5229C45.2799 31.5229 44.4961 30.0257 44.4961 27.2118C44.4961 24.398 46.4262 22.5088 48.8072 22.5088C51.1882 22.5088 53.1183 24.398 53.1183 27.2118Z" fill="url(#paint10_linear_3482_5051)"/>
<path d="M53.1183 27.2036C53.1183 29.8951 51.5506 31.3273 48.4153 31.3273C45.2799 31.3273 44.4961 29.8951 44.4961 27.2036C44.4961 24.5121 46.4262 22.7051 48.8072 22.7051C51.1882 22.7051 53.1183 24.5121 53.1183 27.2036Z" fill="url(#paint11_linear_3482_5051)"/>
<path d="M52.3319 27.1689C52.3319 29.3711 51.0492 30.5428 48.484 30.5428C45.9187 30.5428 45.2773 29.3711 45.2773 27.1689C45.2773 24.9668 46.8566 23.4883 48.8046 23.4883C50.7527 23.4883 52.3319 24.9668 52.3319 27.1689Z" fill="url(#paint12_linear_3482_5051)"/>
<path d="M50.6848 27.1216C50.6848 28.835 50.4353 29.7035 48.7245 29.7035C47.0137 29.7035 46.586 28.7918 46.586 27.0784C46.586 25.365 47.0332 24.2578 48.3324 24.2578C49.6316 24.2578 50.6848 25.4082 50.6848 27.1216Z" fill="#142C57"/>
<path d="M42.8431 30.5283C42.4512 25.4333 47.1542 18.7707 54.6007 24.6495C51.4653 18.3788 40.4916 21.9061 42.8431 30.5283Z" fill="#173F66"/>
<path d="M53.0312 23.4731C53.4233 23.8652 54.6631 25.0414 54.2074 28.1779C55.7757 24.6493 54.0754 23.8652 53.0312 23.4731Z" fill="#173F66"/>
<ellipse cx="50.2866" cy="29.3488" rx="0.391287" ry="0.388181" transform="rotate(-0.11512 50.2866 29.3488)" fill="white"/>
<path d="M52.6387 25.0416C52.6393 25.3385 52.0863 25.2297 51.8276 25.2302C51.5689 25.2307 51.4631 24.9464 51.4625 24.6496C51.4619 24.3527 51.5959 23.8659 51.8545 23.8654C52.1132 23.8649 52.6381 24.7448 52.6387 25.0416Z" fill="#EEF8FF"/>
<path d="M47.1556 23.5839C48.3318 23.1919 48.3318 23.8662 48.3318 23.8662L47.5477 26.6107L45.1953 26.7205C45.1953 26.7205 45.9794 23.976 47.1556 23.5839Z" fill="#F0F8FF"/>
<g filter="url(#filter11_f_3482_5051)">
<path d="M2.0829 45.4224C1.69098 48.1658 2.53543 54.286 7.96169 58.3557C14.2325 63.0587 4.04255 52.8688 2.0829 45.4224Z" fill="#99E7F7" fill-opacity="0.8"/>
</g>
<path d="M45.1953 31.7035C47.0243 31.1809 48.4411 30.9965 51.8579 30.9196C53.8175 30.8755 50.6822 32.0954 45.1953 31.7035Z" fill="#5BB5F4"/>
<g filter="url(#filter12_f_3482_5051)">
<path d="M42.3438 33.5709C43.6157 32.6422 48.7561 28.2427 54.7448 32.178C56.0167 33.0137 48.3853 37.7498 42.3438 33.5709Z" fill="#EDF8FE" fill-opacity="0.5"/>
</g>
<path d="M26.3801 32.0963C26.3563 32.716 18.5417 36.7994 17.7578 27.7852C18.1498 22.2984 26.772 21.9064 26.3801 32.0963Z" fill="url(#paint13_linear_3482_5051)"/>
<path d="M17.7612 28.1779C18.1532 27.1324 19.1394 24.4324 21.6818 24.6493C24.4441 24.8849 16.977 22.6889 17.7612 28.1779Z" fill="#173F66"/>
<path d="M26.3814 29.5626C25.8915 32.4191 24.6267 32.8271 22.4622 32.8271C20.5026 33.2352 18.543 31.2255 18.543 28.7465C18.543 26.2675 19.8078 24.2578 21.9723 24.2578C24.1368 24.2578 26.3814 26.2981 26.3814 29.5626Z" fill="url(#paint14_linear_3482_5051)"/>
<path d="M25.5962 28.5981C25.2533 30.9352 24.368 31.2691 22.8528 31.2691C21.4811 31.603 20.1094 29.9587 20.1094 27.9304C20.1094 25.9021 20.9947 24.2578 22.5099 24.2578C24.025 24.2578 25.5962 25.9272 25.5962 28.5981Z" fill="url(#paint15_linear_3482_5051)"/>
<path d="M24.8123 27.9366C24.6163 29.4953 24.1102 29.7179 23.244 29.7179C22.4599 29.9406 21.6758 28.844 21.6758 27.4913C21.6758 26.1386 22.1819 25.042 23.048 25.042C23.9141 25.042 24.8123 26.1553 24.8123 27.9366Z" fill="#142C57"/>
<path d="M16.1914 25.0421C17.132 25.9827 17.8897 26.2178 18.151 26.2178C17.7591 25.8259 16.9752 24.6502 16.9752 23.0825C17.6023 24.0231 18.9348 24.9115 19.3268 25.0421C19.3268 24.6502 18.151 23.4744 18.151 21.9067C18.7781 23.1609 19.4574 23.4744 19.7187 23.4744C20.5025 23.2131 22.854 23.4744 24.4217 25.0421C24.4217 25.0421 22.7602 24.625 21.6783 24.6502C20.7475 24.6718 19.3268 25.0421 19.3268 25.0421L18.151 26.2178L17.7197 28.1499C17.3121 27.8512 16.4948 26.8626 16.1914 25.0421Z" fill="#173F66"/>
<path d="M26.3841 30.5304C25.992 26.6097 25.2079 25.8256 24.4237 25.0415L22.8555 24.6494C24.0317 25.3029 25.992 26.6097 26.3841 30.5304Z" fill="#173F66"/>
<g filter="url(#filter13_f_3482_5051)">
<path d="M64.9594 52.9106H61.5664C61.7631 55.2947 62.3335 59.8289 63.0416 58.8926C63.7497 57.9563 64.6152 54.5145 64.9594 52.9106Z" fill="#56C2EF"/>
</g>
<path d="M18.1528 29.7454C18.1528 29.7454 17.7607 27.7851 18.1528 27.001C18.0221 27.1317 17.6039 27.6283 16.9766 27.001C17.7607 29.3534 18.1528 29.7454 18.1528 29.7454Z" fill="#173F66"/>
<path d="M19.7188 32.8803C20.5029 32.4882 22.4632 32.8803 25.5997 32.8803C22.9232 34.4582 20.1108 33.2724 19.7188 32.8803Z" fill="#82C9F7"/>
<path d="M24.8133 26.2182C24.9382 26.6613 23.886 26.9249 23.583 26.9249C23.1935 27.0347 22.9154 26.6546 22.7905 26.2114C22.6656 25.7683 22.6641 24.9847 23.0536 24.875C23.4264 24.875 24.4213 25.8261 24.8133 26.2182Z" fill="#EEF8FF"/>
<path d="M22.4653 25.4327C22.4653 25.2161 22.2897 25.0406 22.0732 25.0406C21.8567 25.0406 21.2891 25.2161 21.2891 25.4327C21.2891 25.6492 21.2891 26.2168 22.0732 26.2168C22.2897 26.2168 22.4653 25.6492 22.4653 25.4327Z" fill="#EEF8FF"/>
<ellipse cx="21.5306" cy="31.2345" rx="0.401458" ry="0.583498" transform="rotate(-29.3703 21.5306 31.2345)" fill="#EEF8FF"/>
<ellipse cx="20.542" cy="26.291" rx="0.393511" ry="0.429477" transform="rotate(-5.46049 20.542 26.291)" fill="#EEF8FF"/>
<g filter="url(#filter14_f_3482_5051)">
<path d="M60.2088 66.414L58.2553 68.3293L53.2587 48.2184L60.2088 66.414Z" fill="#48B7E5"/>
</g>
<g filter="url(#filter15_ii_3482_5051)">
<path d="M60.0469 46.6529C56.5197 42.7337 52.9924 46.6529 54.1681 49.3964C55.9971 55.5364 60.4389 68.1301 63.5742 69.3842C67.4934 70.9519 65.1418 53.3156 60.0469 46.6529Z" fill="url(#paint16_linear_3482_5051)"/>
</g>
<path d="M335.385 21.9919L315.88 67.8561H305.626L312.76 52.0293L300.109 21.9919C300.109 21.9919 306.435 19.5594 311.311 24.8758C313.547 27.314 317.942 41.441 317.942 41.441C317.942 41.441 322.28 28.3539 324.599 24.8758C327.74 20.1634 335.385 21.9919 335.385 21.9919Z" fill="white"/>
<path d="M286.458 23.0508C290.025 23.0508 292.886 24.2397 295.041 26.6174C297.195 28.958 298.273 32.1902 298.273 36.3141V57.2679C298.273 57.2679 290.762 58.3128 289.717 53.4366C288.799 49.1516 288.799 37.5959 288.799 37.5959C288.799 35.5153 288.26 33.8992 287.183 32.7475C286.106 31.5958 284.657 31.0199 282.836 31.0199C281.016 31.0199 279.567 31.5958 278.489 32.7475C277.412 33.8992 276.873 35.5153 276.873 37.5959V54.4815H267.344V13.2427H276.873V27.5648C277.839 26.1902 279.158 25.0942 280.83 24.2768C282.502 23.4595 284.378 23.0508 286.458 23.0508Z" fill="white"/>
<path d="M239.049 27.7878C239.978 26.3389 241.26 25.1686 242.894 24.2769C244.529 23.3853 246.442 22.9395 248.634 22.9395C251.198 22.9395 253.52 23.5896 255.6 24.8899C257.681 26.1903 259.315 28.0479 260.504 30.4627C261.73 32.8776 262.343 35.6826 262.343 38.8777C262.343 42.0728 261.73 44.8963 260.504 47.3484C259.315 49.7632 257.681 51.6394 255.6 52.9769C253.52 54.2772 251.198 54.9274 248.634 54.9274C246.479 54.9274 244.566 54.4816 242.894 53.5899C241.26 52.6983 239.978 51.5465 239.049 50.1348V69.3052H229.52V23.3853H240.258L239.049 27.7878ZM252.647 38.8777C252.647 36.5 251.978 34.6424 250.64 33.3049C249.34 31.9303 247.724 31.2429 245.792 31.2429C243.897 31.2429 242.281 31.9303 240.944 33.3049C239.643 34.6795 238.993 36.5557 238.993 38.9334C238.993 41.3111 239.643 43.1873 240.944 44.562C242.281 45.9366 243.897 46.6239 245.792 46.6239C247.687 46.6239 249.303 45.9366 250.64 44.562C251.978 43.1502 252.647 41.2554 252.647 38.8777Z" fill="white"/>
<path d="M203.514 22.9395C205.706 22.9395 207.619 23.3853 209.254 24.2769C210.926 25.1686 212.207 26.3389 213.099 27.7878L211.7 23.3853H222.629V54.4258C222.629 57.2865 222.053 59.8686 220.901 62.172C219.786 64.5126 218.059 66.3702 215.718 67.7448C213.415 69.1195 210.536 69.8068 207.08 69.8068C202.474 69.8068 198.74 68.7108 195.879 66.5188C193.018 64.364 192.195 62.0592 192.195 59.3578C192.195 56.6563 199.309 56.8221 199.858 57.9646C200.407 59.107 201.396 59.8315 202.511 60.5002C203.625 61.2061 205 61.559 206.635 61.559C208.604 61.559 210.164 60.9832 211.316 59.8315C212.505 58.7169 213.099 56.915 213.099 54.4258V50.0233C212.17 51.4722 210.888 52.6611 209.254 53.5899C207.619 54.4816 205.706 54.9274 203.514 54.9274C200.95 54.9274 198.628 54.2772 196.548 52.9769C194.467 51.6394 192.814 49.7632 191.588 47.3484C190.399 44.8963 189.805 42.0728 189.805 38.8777C189.805 35.6826 190.399 32.8776 191.588 30.4627C192.814 28.0479 194.467 26.1903 196.548 24.8899C198.628 23.5896 200.95 22.9395 203.514 22.9395ZM213.099 38.9334C213.099 36.5557 212.43 34.6795 211.093 33.3049C209.792 31.9303 208.195 31.2429 206.3 31.2429C204.405 31.2429 202.789 31.9303 201.452 33.3049C200.152 34.6424 199.501 36.5 199.501 38.8777C199.501 41.2554 200.152 43.1502 201.452 44.562C202.789 45.9366 204.405 46.6239 206.3 46.6239C208.195 46.6239 209.792 45.9366 211.093 44.562C212.43 43.1873 213.099 41.3111 213.099 38.9334Z" fill="white"/>
<path d="M173.096 23.0503C176.737 23.0503 179.635 24.2392 181.79 26.6169C183.982 28.9575 185.078 32.1897 185.078 36.3136V56.919C185.078 56.919 176.522 57.6156 175.825 53.0877C175.291 49.6134 175.604 37.5953 175.604 37.5953C175.604 35.5148 175.065 33.8987 173.988 32.747C172.91 31.5953 171.461 31.0194 169.641 31.0194C167.82 31.0194 166.371 31.5953 165.294 32.747C164.217 33.8987 163.678 35.5148 163.678 37.5953V54.4809H154.148V23.3847H164.68L163.678 27.5085C164.644 26.1339 165.944 25.0565 167.579 24.2763C169.214 23.459 171.053 23.0503 173.096 23.0503Z" fill="white"/>
<path d="M114.43 38.8777C114.43 35.6826 115.024 32.8776 116.213 30.4627C117.439 28.0479 119.092 26.1903 121.173 24.8899C123.253 23.5896 125.575 22.9395 128.139 22.9395C130.331 22.9395 132.244 23.3853 133.879 24.2769C135.551 25.1686 136.832 26.3389 137.724 27.7878L136.815 23.3853H147.254V54.4816C147.254 54.4816 140.117 56.9683 138.556 53.5899C137.835 52.0291 137.724 50.079 137.724 50.079C136.795 51.528 135.495 52.6983 133.823 53.5899C132.188 54.4816 130.275 54.9274 128.083 54.9274C125.557 54.9274 123.253 54.2772 121.173 52.9769C119.092 51.6394 117.439 49.7632 116.213 47.3484C115.024 44.8963 114.43 42.0728 114.43 38.8777ZM137.724 38.9334C137.724 36.5557 137.055 34.6795 135.718 33.3049C134.417 31.9303 132.82 31.2429 130.925 31.2429C129.03 31.2429 127.414 31.9303 126.077 33.3049C124.777 34.6424 124.126 36.5 124.126 38.8777C124.126 41.2554 124.777 43.1502 126.077 44.562C127.414 45.9366 129.03 46.6239 130.925 46.6239C132.82 46.6239 134.417 45.9366 135.718 44.562C137.055 43.1873 137.724 41.3111 137.724 38.9334Z" fill="white"/>
<path d="M96.7607 45.4254H110.693V54.4812H86.9805V8.15723C86.9805 8.15723 96.6747 10.646 96.7607 14.3665C97.0115 25.2132 96.7607 45.4254 96.7607 45.4254Z" fill="white"/>
<defs>
<filter id="filter0_i_3482_5051" x="16.1914" y="45.4224" width="14.0117" height="17.6768" filterUnits="userSpaceOnUse" color-interpolation-filters="sRGB">
<feFlood flood-opacity="0" result="BackgroundImageFix"/>
<feBlend mode="normal" in="SourceGraphic" in2="BackgroundImageFix" result="shape"/>
<feColorMatrix in="SourceAlpha" type="matrix" values="0 0 0 0 0 0 0 0 0 0 0 0 0 0 0 0 0 0 127 0" result="hardAlpha"/>
<feOffset dy="2"/>
<feGaussianBlur stdDeviation="2"/>
<feComposite in2="hardAlpha" operator="arithmetic" k2="-1" k3="1"/>
<feColorMatrix type="matrix" values="0 0 0 0 0.0425347 0 0 0 0 0.549444 0 0 0 0 0.729167 0 0 0 0.4 0"/>
<feBlend mode="normal" in2="shape" result="effect1_innerShadow_3482_5051"/>
</filter>
<filter id="filter1_f_3482_5051" x="14.1172" y="49.7798" width="7.16406" height="12.5923" filterUnits="userSpaceOnUse" color-interpolation-filters="sRGB">
<feFlood flood-opacity="0" result="BackgroundImageFix"/>
<feBlend mode="normal" in="SourceGraphic" in2="BackgroundImageFix" result="shape"/>
<feGaussianBlur stdDeviation="1" result="effect1_foregroundBlur_3482_5051"/>
</filter>
<filter id="filter2_ii_3482_5051" x="0.515625" y="-2" width="68.793" height="81.8662" filterUnits="userSpaceOnUse" color-interpolation-filters="sRGB">
<feFlood flood-opacity="0" result="BackgroundImageFix"/>
<feBlend mode="normal" in="SourceGraphic" in2="BackgroundImageFix" result="shape"/>
<feColorMatrix in="SourceAlpha" type="matrix" values="0 0 0 0 0 0 0 0 0 0 0 0 0 0 0 0 0 0 127 0" result="hardAlpha"/>
<feOffset dy="2"/>
<feGaussianBlur stdDeviation="1"/>
<feComposite in2="hardAlpha" operator="arithmetic" k2="-1" k3="1"/>
<feColorMatrix type="matrix" values="0 0 0 0 0.34902 0 0 0 0 0.729412 0 0 0 0 1 0 0 0 0.6 0"/>
<feBlend mode="normal" in2="shape" result="effect1_innerShadow_3482_5051"/>
<feColorMatrix in="SourceAlpha" type="matrix" values="0 0 0 0 0 0 0 0 0 0 0 0 0 0 0 0 0 0 127 0" result="hardAlpha"/>
<feOffset dy="-2"/>
<feGaussianBlur stdDeviation="2.5"/>
<feComposite in2="hardAlpha" operator="arithmetic" k2="-1" k3="1"/>
<feColorMatrix type="matrix" values="0 0 0 0 0.380392 0 0 0 0 0.745098 0 0 0 0 0.937255 0 0 0 0.1 0"/>
<feBlend mode="normal" in2="effect1_innerShadow_3482_5051" result="effect2_innerShadow_3482_5051"/>
</filter>
<filter id="filter3_f_3482_5051" x="57.4062" y="16" width="9.92969" height="14.1812" filterUnits="userSpaceOnUse" color-interpolation-filters="sRGB">
<feFlood flood-opacity="0" result="BackgroundImageFix"/>
<feBlend mode="normal" in="SourceGraphic" in2="BackgroundImageFix" result="shape"/>
<feGaussianBlur stdDeviation="0.5" result="effect1_foregroundBlur_3482_5051"/>
</filter>
<filter id="filter4_f_3482_5051" x="27.5508" y="29.9775" width="12.1758" height="3.48486" filterUnits="userSpaceOnUse" color-interpolation-filters="sRGB">
<feFlood flood-opacity="0" result="BackgroundImageFix"/>
<feBlend mode="normal" in="SourceGraphic" in2="BackgroundImageFix" result="shape"/>
<feGaussianBlur stdDeviation="0.5" result="effect1_foregroundBlur_3482_5051"/>
</filter>
<filter id="filter5_f_3482_5051" x="37.0508" y="16.6367" width="23.9492" height="22.3799" filterUnits="userSpaceOnUse" color-interpolation-filters="sRGB">
<feFlood flood-opacity="0" result="BackgroundImageFix"/>
<feBlend mode="normal" in="SourceGraphic" in2="BackgroundImageFix" result="shape"/>
<feGaussianBlur stdDeviation="0.5" result="effect1_foregroundBlur_3482_5051"/>
</filter>
<filter id="filter6_f_3482_5051" x="14.5156" y="20.481" width="15.6367" height="11.2852" filterUnits="userSpaceOnUse" color-interpolation-filters="sRGB">
<feFlood flood-opacity="0" result="BackgroundImageFix"/>
<feBlend mode="normal" in="SourceGraphic" in2="BackgroundImageFix" result="shape"/>
<feGaussianBlur stdDeviation="0.5" result="effect1_foregroundBlur_3482_5051"/>
</filter>
<filter id="filter7_f_3482_5051" x="10.1094" y="57.9336" width="13.4688" height="11.6343" filterUnits="userSpaceOnUse" color-interpolation-filters="sRGB">
<feFlood flood-opacity="0" result="BackgroundImageFix"/>
<feBlend mode="normal" in="SourceGraphic" in2="BackgroundImageFix" result="shape"/>
<feGaussianBlur stdDeviation="1.5" result="effect1_foregroundBlur_3482_5051"/>
</filter>
<filter id="filter8_f_3482_5051" x="26.7305" y="31.6641" width="8.70312" height="7.13672" filterUnits="userSpaceOnUse" color-interpolation-filters="sRGB">
<feFlood flood-opacity="0" result="BackgroundImageFix"/>
<feBlend mode="normal" in="SourceGraphic" in2="BackgroundImageFix" result="shape"/>
<feGaussianBlur stdDeviation="1" result="effect1_foregroundBlur_3482_5051"/>
</filter>
<filter id="filter9_f_3482_5051" x="49.5977" y="43.5576" width="14.7031" height="20.9736" filterUnits="userSpaceOnUse" color-interpolation-filters="sRGB">
<feFlood flood-opacity="0" result="BackgroundImageFix"/>
<feBlend mode="normal" in="SourceGraphic" in2="BackgroundImageFix" result="shape"/>
<feGaussianBlur stdDeviation="2.5" result="effect1_foregroundBlur_3482_5051"/>
</filter>
<filter id="filter10_f_3482_5051" x="14.9766" y="30.8799" width="12.6211" height="8.70312" filterUnits="userSpaceOnUse" color-interpolation-filters="sRGB">
<feFlood flood-opacity="0" result="BackgroundImageFix"/>
<feBlend mode="normal" in="SourceGraphic" in2="BackgroundImageFix" result="shape"/>
<feGaussianBlur stdDeviation="1" result="effect1_foregroundBlur_3482_5051"/>
</filter>
<filter id="filter11_f_3482_5051" x="0" y="43.4224" width="11.9766" height="18.1289" filterUnits="userSpaceOnUse" color-interpolation-filters="sRGB">
<feFlood flood-opacity="0" result="BackgroundImageFix"/>
<feBlend mode="normal" in="SourceGraphic" in2="BackgroundImageFix" result="shape"/>
<feGaussianBlur stdDeviation="1" result="effect1_foregroundBlur_3482_5051"/>
</filter>
<filter id="filter12_f_3482_5051" x="40.3438" y="28.5679" width="16.543" height="8.70312" filterUnits="userSpaceOnUse" color-interpolation-filters="sRGB">
<feFlood flood-opacity="0" result="BackgroundImageFix"/>
<feBlend mode="normal" in="SourceGraphic" in2="BackgroundImageFix" result="shape"/>
<feGaussianBlur stdDeviation="1" result="effect1_foregroundBlur_3482_5051"/>
</filter>
<filter id="filter13_f_3482_5051" x="59.5664" y="50.9106" width="7.39453" height="10.1074" filterUnits="userSpaceOnUse" color-interpolation-filters="sRGB">
<feFlood flood-opacity="0" result="BackgroundImageFix"/>
<feBlend mode="normal" in="SourceGraphic" in2="BackgroundImageFix" result="shape"/>
<feGaussianBlur stdDeviation="1" result="effect1_foregroundBlur_3482_5051"/>
</filter>
<filter id="filter14_f_3482_5051" x="51.2578" y="46.2183" width="10.9492" height="24.1108" filterUnits="userSpaceOnUse" color-interpolation-filters="sRGB">
<feFlood flood-opacity="0" result="BackgroundImageFix"/>
<feBlend mode="normal" in="SourceGraphic" in2="BackgroundImageFix" result="shape"/>
<feGaussianBlur stdDeviation="1" result="effect1_foregroundBlur_3482_5051"/>
</filter>
<filter id="filter15_ii_3482_5051" x="53.9375" y="42.9985" width="13.5977" height="26.4839" filterUnits="userSpaceOnUse" color-interpolation-filters="sRGB">
<feFlood flood-opacity="0" result="BackgroundImageFix"/>
<feBlend mode="normal" in="SourceGraphic" in2="BackgroundImageFix" result="shape"/>
<feColorMatrix in="SourceAlpha" type="matrix" values="0 0 0 0 0 0 0 0 0 0 0 0 0 0 0 0 0 0 127 0" result="hardAlpha"/>
<feOffset dy="-2"/>
<feGaussianBlur stdDeviation="4"/>
<feComposite in2="hardAlpha" operator="arithmetic" k2="-1" k3="1"/>
<feColorMatrix type="matrix" values="0 0 0 0 0.218698 0 0 0 0 0.714874 0 0 0 0 0.920833 0 0 0 0.5 0"/>
<feBlend mode="normal" in2="shape" result="effect1_innerShadow_3482_5051"/>
<feColorMatrix in="SourceAlpha" type="matrix" values="0 0 0 0 0 0 0 0 0 0 0 0 0 0 0 0 0 0 127 0" result="hardAlpha"/>
<feOffset dx="2"/>
<feGaussianBlur stdDeviation="2"/>
<feComposite in2="hardAlpha" operator="arithmetic" k2="-1" k3="1"/>
<feColorMatrix type="matrix" values="0 0 0 0 0.388235 0 0 0 0 0.905882 0 0 0 0 0.964706 0 0 0 1 0"/>
<feBlend mode="normal" in2="effect1_innerShadow_3482_5051" result="effect2_innerShadow_3482_5051"/>
</filter>
<linearGradient id="paint0_linear_3482_5051" x1="12.664" y1="27.001" x2="12.664" y2="31.704" gradientUnits="userSpaceOnUse">
<stop stop-color="#10BFCF"/>
<stop offset="1" stop-color="#A7F7FB"/>
</linearGradient>
<linearGradient id="paint1_linear_3482_5051" x1="35.3954" y1="46.99" x2="35.7874" y2="62.6668" gradientUnits="userSpaceOnUse">
<stop stop-color="#5FC7F5"/>
<stop offset="1" stop-color="#ACF0FC"/>
</linearGradient>
<linearGradient id="paint2_linear_3482_5051" x1="34.9118" y1="0.742527" x2="34.9118" y2="77.8664" gradientUnits="userSpaceOnUse">
<stop offset="0.0292509" stop-color="#EEF8FF"/>
<stop offset="0.396124" stop-color="#5AB4F3"/>
<stop offset="1" stop-color="#68F0F8"/>
</linearGradient>
<linearGradient id="paint3_linear_3482_5051" x1="34.8065" y1="35.6541" x2="34.8065" y2="41.839" gradientUnits="userSpaceOnUse">
<stop stop-color="#011F44"/>
<stop offset="1" stop-color="#44B5ED"/>
</linearGradient>
<linearGradient id="paint4_linear_3482_5051" x1="34.9999" y1="31.4473" x2="34.9999" y2="40.0695" gradientUnits="userSpaceOnUse">
<stop stop-color="#5BB7F4"/>
<stop offset="1" stop-color="#B5E0FF"/>
</linearGradient>
<linearGradient id="paint5_linear_3482_5051" x1="47.9346" y1="16.8115" x2="47.9346" y2="37.1904" gradientUnits="userSpaceOnUse">
<stop stop-color="#E0F2FF"/>
<stop offset="1" stop-color="#1465E1"/>
</linearGradient>
<linearGradient id="paint6_linear_3482_5051" x1="20.1118" y1="19.9468" x2="20.1118" y2="40.3267" gradientUnits="userSpaceOnUse">
<stop stop-color="#E0F2FF"/>
<stop offset="1" stop-color="#1465E1"/>
</linearGradient>
<linearGradient id="paint7_linear_3482_5051" x1="67.141" y1="15.6351" x2="61.428" y2="26.7186" gradientUnits="userSpaceOnUse">
<stop stop-color="#08E5F4"/>
<stop offset="1" stop-color="#94F8FF"/>
</linearGradient>
<linearGradient id="paint8_linear_3482_5051" x1="33.4127" y1="29.6216" x2="33.4127" y2="31.2044" gradientUnits="userSpaceOnUse">
<stop stop-color="#E0F2FF"/>
<stop offset="1" stop-color="#1465E1"/>
</linearGradient>
<linearGradient id="paint9_linear_3482_5051" x1="48.7619" y1="22.0375" x2="45.9759" y2="31.7034" gradientUnits="userSpaceOnUse">
<stop stop-color="#173F66"/>
<stop offset="0.693722" stop-color="white"/>
</linearGradient>
<linearGradient id="paint10_linear_3482_5051" x1="48.8072" y1="22.5088" x2="49.1141" y2="29.3524" gradientUnits="userSpaceOnUse">
<stop stop-color="#054878"/>
<stop offset="1" stop-color="#A3C9ED"/>
</linearGradient>
<linearGradient id="paint11_linear_3482_5051" x1="48.8072" y1="22.7051" x2="49.088" y2="29.2522" gradientUnits="userSpaceOnUse">
<stop stop-color="#054878"/>
<stop offset="1" stop-color="#B4DBFF"/>
</linearGradient>
<linearGradient id="paint12_linear_3482_5051" x1="48.8046" y1="23.4883" x2="48.8046" y2="30.5428" gradientUnits="userSpaceOnUse">
<stop stop-color="#0F6FB3"/>
<stop offset="1" stop-color="#2A8CD2"/>
</linearGradient>
<linearGradient id="paint13_linear_3482_5051" x1="22.4609" y1="24.6499" x2="18.7022" y2="32.9265" gradientUnits="userSpaceOnUse">
<stop stop-color="#173F66"/>
<stop offset="0.693722" stop-color="white"/>
</linearGradient>
<linearGradient id="paint14_linear_3482_5051" x1="22.4622" y1="24.2578" x2="22.7709" y2="30.8024" gradientUnits="userSpaceOnUse">
<stop stop-color="#054878"/>
<stop offset="1" stop-color="#B4DBFF"/>
</linearGradient>
<linearGradient id="paint15_linear_3482_5051" x1="22.8528" y1="24.2578" x2="22.8528" y2="31.3124" gradientUnits="userSpaceOnUse">
<stop stop-color="#173F66"/>
<stop offset="1" stop-color="#2A8CD2"/>
</linearGradient>
<linearGradient id="paint16_linear_3482_5051" x1="59.7369" y1="44.9985" x2="59.7369" y2="69.4824" gradientUnits="userSpaceOnUse">
<stop stop-color="#60CCF6"/>
<stop offset="1" stop-color="#BEF8FF"/>
</linearGradient>
</defs>
</svg>
