<svg width="60" height="60" viewBox="0 0 60 60" fill="none" xmlns="http://www.w3.org/2000/svg">
<g filter="url(#filter0_i_3491_1636)">
<path d="M48.5676 6.34766C54.8754 11.5136 58.9433 18.69 59.7589 26.8536C59.7852 27.1007 59.8084 27.3482 59.8287 27.5959C59.8489 27.8436 59.866 28.0915 59.88 28.3396C59.8941 28.5877 59.9051 28.8359 59.9129 29.0843C59.9207 29.3327 59.9256 29.5812 59.9272 29.8297C59.9287 30.0781 59.9272 30.3266 59.9226 30.5751C59.9183 30.8237 59.9106 31.0721 59.8998 31.3203C59.889 31.5686 59.8751 31.8167 59.8582 32.0646C59.8414 32.3126 59.8213 32.5603 59.7982 32.8078C59.775 33.0552 59.7488 33.3023 59.7194 33.549C59.6902 33.7958 59.6579 34.0422 59.6224 34.2881C59.5869 34.5342 59.5485 34.7797 59.5071 35.0246C59.4655 35.2696 59.4209 35.5141 59.3732 35.7581C59.3256 36.002 59.2749 36.2452 59.2211 36.4879C59.1673 36.7305 59.1106 36.9724 59.0509 37.2135C58.9911 37.4548 58.9283 37.6953 58.8627 37.935C58.7969 38.1747 58.7281 38.4134 58.6563 38.6513C58.5847 38.8894 58.51 39.1263 58.4324 39.3624C58.3548 39.5984 58.2743 39.8336 58.1909 40.0676C58.1074 40.3016 58.0209 40.5346 57.9316 40.7665C57.8424 40.9985 57.7502 41.2293 57.6552 41.4589C57.5601 41.6886 57.4622 41.917 57.3613 42.144C57.2606 42.3712 57.157 42.5972 57.0507 42.8219C56.9443 43.0465 56.8351 43.2697 56.7232 43.4914C56.6112 43.7133 56.4966 43.9338 56.379 44.1528C56.2616 44.3718 56.1414 44.5893 56.0187 44.8053C55.8958 45.0213 55.7702 45.2357 55.6419 45.4486C55.5136 45.6615 55.3828 45.8728 55.2494 46.0824C55.1159 46.292 54.9797 46.5 54.8411 46.7063C54.7024 46.9124 54.5612 47.1168 54.4173 47.3195C54.2736 47.5223 54.1272 47.7232 53.9784 47.9221C53.8296 48.1212 53.6785 48.3184 53.5248 48.5137C53.371 48.7091 53.2149 48.9024 53.0564 49.0937C48.1573 55.0484 40.818 59.128 33.1165 59.8588C24.6239 60.6645 16.7516 58.1688 10.2065 52.6749C10.0724 52.5627 9.94109 52.4473 9.8125 52.3287C19.4802 49.8453 27.9875 45.4724 35.065 38.3531C41.5248 31.8552 46.5085 23.4224 48.0373 14.3106C48.482 11.6588 48.5774 9.03119 48.5676 6.34766Z" fill="#68F0F8"/>
<path d="M9.88717 52.5358C8.98325 51.7837 8.15083 50.8485 7.37983 49.9603C7.13668 49.6823 6.89886 49.3999 6.66622 49.1131C6.43364 48.8263 6.20638 48.5353 5.98444 48.2402C5.76265 47.9451 5.54631 47.646 5.33544 47.3427C5.12471 47.0395 4.91966 46.7325 4.72013 46.4218C4.52075 46.111 4.32719 45.7967 4.13937 45.4786C3.95155 45.1607 3.76968 44.8394 3.59392 44.5148C3.41794 44.1901 3.24814 43.8622 3.08437 43.5313C2.92059 43.2003 2.76305 42.8664 2.61162 42.5295C2.46019 42.1927 2.31507 41.8532 2.17626 41.5111C2.03731 41.1689 1.90482 40.8243 1.77877 40.4773C1.65273 40.1302 1.53307 39.781 1.41987 39.4294C1.30681 39.0779 1.2002 38.7245 1.10005 38.369C1.00004 38.0135 0.906559 37.6564 0.819742 37.2975C0.732854 36.9386 0.652699 36.5782 0.579075 36.2164C0.505522 35.8543 0.438779 35.4912 0.378773 35.1269C0.318625 34.7625 0.265288 34.3972 0.218758 34.031C-0.77886 26.1406 1.68834 17.932 6.54336 11.6814C11.5019 5.29779 18.5475 1.18752 26.5938 0.196283C26.8377 0.168124 27.0817 0.143086 27.3261 0.121027C27.5704 0.0988261 27.8151 0.0797468 28.0601 0.0636459C28.3048 0.0476869 28.5498 0.0347051 28.795 0.0245622C29.0402 0.0145612 29.2855 0.00768111 29.5309 0.00378001C29.7762 -0.000121092 30.0216 -0.000971843 30.2671 0.0010851C30.5124 0.0032839 30.7577 0.00846182 31.0029 0.0166896C31.2483 0.0249883 31.4934 0.0362658 31.7383 0.0505935C31.9832 0.0648502 32.228 0.0821566 32.4726 0.102513C32.7171 0.122728 32.9614 0.146064 33.2053 0.17252C33.4493 0.198835 33.6929 0.2282 33.9362 0.260614C34.1795 0.293029 34.4223 0.328423 34.6646 0.366796C34.907 0.405169 35.1489 0.446592 35.3902 0.491065C35.6315 0.535396 35.8723 0.582704 36.1125 0.632992C36.3527 0.683423 36.5923 0.736763 36.8311 0.793009C37.0699 0.849256 37.308 0.908482 37.5455 0.970687C37.7828 1.03275 38.0194 1.09779 38.2551 1.16581C38.4909 1.23383 38.7259 1.30476 38.96 1.3786C39.194 1.45244 39.4271 1.52911 39.6592 1.60862C39.8913 1.68813 40.1223 1.77055 40.3525 1.85588C40.5826 1.94121 40.8116 2.0293 41.0395 2.12024C41.2676 2.21124 41.4943 2.305 41.7199 2.40161C41.9454 2.49814 42.1698 2.59752 42.3929 2.69958C42.6161 2.80165 42.8379 2.90656 43.0585 3.01423C43.279 3.12175 43.4982 3.23198 43.716 3.34504C43.9339 3.4581 44.1503 3.57378 44.3652 3.69209C44.5802 3.81055 44.7937 3.93155 45.0056 4.05511C45.2175 4.17881 45.428 4.30514 45.6369 4.43394C45.8456 4.56275 46.0528 4.69418 46.2584 4.82817C46.4641 4.96215 46.668 5.09862 46.8702 5.2375C47.0725 5.37659 47.273 5.5181 47.4718 5.66201C47.6705 5.80593 47.8673 5.95239 48.0624 6.10127C48.2576 6.25008 48.4508 6.40123 48.6421 6.55494C48.6519 9.23847 48.5565 11.8661 48.1118 14.5179C46.5831 23.6296 41.5994 32.0623 35.1396 38.5602C28.0622 45.6794 19.5549 50.0524 9.88717 52.5358Z" fill="#A6F7FB"/>
<path d="M32.5055 9.91211L32.844 9.91544C32.235 10.3674 30.7392 10.5019 29.9488 10.825C27.7581 11.7208 25.7036 12.7924 23.7594 14.1516C16.5005 19.2267 11.0977 27.3947 8.99107 35.9719C8.73381 37.0194 8.50939 38.081 8.38931 39.1537C8.28497 40.0865 8.26667 41.0377 8.10382 41.9619L7.98018 41.8408C7.71463 40.8066 7.5 39.7621 7.33622 38.7071C7.17259 37.6521 7.06059 36.5916 7.00023 35.5257C6.98902 35.332 6.98023 35.1382 6.97384 34.9443C6.96746 34.7504 6.96348 34.5564 6.96178 34.3624C6.96015 34.1684 6.96087 33.9743 6.96406 33.7804C6.96711 33.5863 6.97263 33.3923 6.98065 33.1986C6.98852 33.0046 6.99888 32.8109 7.01165 32.6174C7.02441 32.4237 7.03945 32.2302 7.05697 32.037C7.07442 31.8437 7.09429 31.6508 7.11663 31.458C7.13883 31.2653 7.16336 31.0729 7.19039 30.8807C7.21741 30.6886 7.24678 30.4968 7.27849 30.3054C7.31019 30.1139 7.3443 29.9229 7.38069 29.7325C7.41715 29.5418 7.45595 29.3517 7.49708 29.1621C7.53808 28.9724 7.58149 28.7833 7.62738 28.5948C7.67313 28.4062 7.72122 28.2183 7.77158 28.031C7.82201 27.8436 7.87479 27.6569 7.9299 27.4708C7.98494 27.2848 8.04218 27.0994 8.10176 26.9147C8.16134 26.73 8.22319 26.5462 8.28731 26.3631C8.35143 26.1801 8.41781 25.9978 8.4864 25.8163C8.55513 25.6347 8.626 25.4541 8.69898 25.2744C8.77211 25.0947 8.84743 24.9159 8.92489 24.738C9.00248 24.5601 9.08221 24.3832 9.16407 24.2073C9.24592 24.0313 9.32997 23.8565 9.41614 23.6826C9.50232 23.5087 9.59056 23.3359 9.68093 23.1643C9.77136 22.9926 9.86392 22.8221 9.95854 22.6527C10.0532 22.4832 10.1499 22.3151 10.2489 22.1482C10.3477 21.9811 10.4484 21.8154 10.5512 21.6509C10.6541 21.4863 10.759 21.323 10.8659 21.1611C10.9728 20.9993 11.0817 20.8387 11.1925 20.6794C11.3035 20.5203 11.4163 20.3624 11.531 20.2058C11.6457 20.0494 11.7623 19.8944 11.8809 19.7408C11.9995 19.5873 12.12 19.4352 12.2423 19.2846C12.3647 19.1339 12.4889 18.9847 12.6149 18.8372C12.7408 18.6897 12.8686 18.5437 12.9983 18.3993C17.898 12.9736 25.3148 10.3004 32.5055 9.91211Z" fill="#FEFEFE"/>
</g>
<defs>
<filter id="filter0_i_3491_1636" x="-2" y="-2" width="61.9297" height="62.0068" filterUnits="userSpaceOnUse" color-interpolation-filters="sRGB">
<feFlood flood-opacity="0" result="BackgroundImageFix"/>
<feBlend mode="normal" in="SourceGraphic" in2="BackgroundImageFix" result="shape"/>
<feColorMatrix in="SourceAlpha" type="matrix" values="0 0 0 0 0 0 0 0 0 0 0 0 0 0 0 0 0 0 127 0" result="hardAlpha"/>
<feOffset dx="-2" dy="-2"/>
<feGaussianBlur stdDeviation="3"/>
<feComposite in2="hardAlpha" operator="arithmetic" k2="-1" k3="1"/>
<feColorMatrix type="matrix" values="0 0 0 0 0 0 0 0 0 0 0 0 0 0 0 0 0 0 0.15 0"/>
<feBlend mode="normal" in2="shape" result="effect1_innerShadow_3491_1636"/>
</filter>
</defs>
</svg>
