<svg width="480" height="382" viewBox="0 0 480 382" fill="none" xmlns="http://www.w3.org/2000/svg">
<path d="M467.53 223.724C461.355 205.805 446.251 195.746 424.753 190.376C377.709 178.633 358.019 177.69 356.793 125.686C354.402 25.1801 231.732 51.7937 202.531 78.396C180.979 98.0287 153.17 138.096 87.2008 137.971C-33.835 137.736 -15.3329 274.444 60.5564 336.46C122.667 387.223 206.019 344.367 216.469 340.962C241.288 332.876 267.29 332.268 293.706 333.512C450.194 340.913 486.863 279.88 467.53 223.724Z" fill="#EEF8FF"/>
<path d="M379.166 108.756C366.776 109.376 370.677 123.99 378.317 129.514C390.616 138.391 400.909 137.6 402.312 129.398C403.934 119.958 393.228 108.073 379.166 108.756Z" fill="#EEF8FF"/>
<path d="M380.86 67.1594C372.965 67.5544 375.453 76.8671 380.324 80.3896C388.152 86.0468 394.717 85.5432 395.606 80.3166C396.647 74.3009 389.823 66.7255 380.86 67.1594Z" fill="#EEF8FF"/>
<path d="M109.853 112.699C108.558 120.503 118.187 120.052 122.666 116.042C129.861 109.586 130.765 103.078 125.851 101.086C120.193 98.7927 111.34 103.846 109.853 112.699Z" fill="#EEF8FF"/>
<path d="M138.372 381.627C119.062 381.627 100.976 376.93 84.1823 367.523C29.6809 336.995 -6.47895 274.803 1.85803 225.94C7.62229 192.152 34.2659 169.455 76.8779 162.025C130.794 152.625 153.319 120.091 169.769 96.3368C172.776 91.9968 175.574 87.9593 178.307 84.4166C195.401 62.2728 250.687 36.4175 292.057 46.0855C319.246 52.4386 337.067 72.9513 343.589 105.403C352.679 150.684 368.133 151.68 409.436 154.342L419.105 154.985C443.844 156.723 460.282 165.523 469.36 181.888C482.23 205.107 483.464 229.456 472.837 250.446C459.535 276.713 421.369 310.881 315.069 324.483C292.01 327.438 265.208 332.175 241.295 344.913C240.379 345.402 238.856 346.377 236.787 347.694C201.267 370.301 168.351 381.627 138.372 381.627ZM273.119 49.835C237.391 49.835 196.412 70.4727 182.91 87.9667C180.229 91.4372 177.493 95.3936 174.547 99.6469C157.514 124.244 134.186 157.934 77.8755 167.752C26.5997 176.692 11.35 204.861 7.5866 226.918C-0.233732 272.738 35.4038 333.539 87.0235 362.454C127.871 385.341 177.21 378.721 233.666 342.791C235.909 341.364 237.565 340.315 238.563 339.785C263.302 326.605 290.749 321.74 314.33 318.72C418.104 305.44 454.987 272.834 467.649 247.823C480.123 223.191 472.698 199.906 464.277 184.707C456.115 169.997 441.632 162.396 418.695 160.783L409.058 160.142C367.035 157.433 347.855 156.198 337.888 106.548C331.762 76.0642 315.896 57.6254 290.734 51.7451C285.123 50.4328 279.196 49.835 273.119 49.835Z" fill="#D9EFFF"/>
<path d="M152.133 94.2735H157.96L160.29 93.1081L173.11 84.9505V80.2889L160.29 88.4466L152.133 90.7774V94.2735Z" fill="url(#paint0_linear_3531_4800)"/>
<path d="M237.205 90.3979C227.882 87.4569 216.228 89.7852 211.566 91.317V87.2801C215.839 85.7263 226.716 83.3178 236.039 86.1147L237.205 90.3979Z" fill="#B4DBFF"/>
<g filter="url(#filter0_i_3531_4800)">
<path d="M214.771 151.378L194.96 135.063C186.802 139.725 163.495 181.678 177.479 181.678C188.667 181.678 207.002 161.478 214.771 151.378Z" fill="url(#paint1_linear_3531_4800)"/>
</g>
<g filter="url(#filter1_f_3531_4800)">
<path d="M172.879 179.519C173.235 178.847 180.357 168.761 181.07 153.969C185.343 166.879 177.39 176.381 172.879 179.519Z" fill="#48B7E4"/>
</g>
<path d="M167.839 128.084C167.839 138.713 161.477 154.992 158.09 161.985L158.767 163.383C161.816 160.237 172.546 135.144 167.839 128.084Z" fill="#42B3E1"/>
<g filter="url(#filter2_ii_3531_4800)">
<path d="M173.609 91.6325C174.775 134.752 187.594 127.759 213.232 152.232C230.713 191.855 186.429 195.352 172.444 181.367C195.752 145.24 165.452 123.098 167.782 128.925C170.579 133.586 163.121 153.786 158.459 162.721C152.632 152.232 137.483 137.082 131.656 120.767C114.175 162.721 145.64 180.202 158.459 184.863C238.871 269.936 295.975 219.825 318.117 182.532C323.927 172.747 332.101 127.759 330.936 102.121C330.936 32.198 280.825 -12.3964 227.217 3.06342C173.609 18.5233 166.617 65.9941 173.609 91.6325Z" fill="url(#paint2_linear_3531_4800)"/>
</g>
<path d="M272.816 45.6062C265.193 43.0999 262.805 45.2944 256.962 46.6017C256.848 46.6273 256.733 46.5435 256.724 46.4264C256.181 39.6355 270.716 39.4614 273.061 45.3633C273.121 45.5144 272.971 45.6569 272.816 45.6062Z" fill="#55A4DD"/>
<path d="M205.738 109.789C210.4 109.789 220.888 126.903 250.023 104.761C243.031 124.572 219.723 133.896 205.738 109.789Z" fill="url(#paint3_linear_3531_4800)"/>
<path d="M214.104 98.1822C196.144 111.951 221.288 133.751 250.024 105.067C244.037 98.1822 228.472 87.1673 214.104 98.1822Z" fill="url(#paint4_linear_3531_4800)"/>
<g filter="url(#filter3_f_3531_4800)">
<path d="M299.643 81.7532L302.045 81.3345L309.036 78.8504L316.549 50.9676L318.95 50.549L322.208 55.0426L318.606 55.6705L312.294 83.3441C312.294 83.3441 303.115 87.4749 300.499 86.6655C297.884 85.856 298.442 81.9625 299.643 81.7532Z" fill="#50BCEA"/>
</g>
<g filter="url(#filter4_f_3531_4800)">
<path d="M238.283 95.8474C228.663 94.394 217.48 95.5129 211.574 96.5062C210.686 96.6556 209.863 95.9785 209.863 95.0778C209.863 94.4076 210.327 93.8267 210.985 93.701C216.543 92.6402 228.795 91.2597 238.852 92.7982C239.588 92.9108 240.119 93.5516 240.119 94.2965C240.119 95.264 239.239 95.9919 238.283 95.8474Z" fill="#3BADF4"/>
</g>
<g filter="url(#filter5_f_3531_4800)">
<path fill-rule="evenodd" clip-rule="evenodd" d="M270.736 52.4441C288.758 52.4443 303.366 66.0099 303.366 82.7439C303.366 99.478 288.758 113.044 270.736 113.044C252.715 113.044 238.105 99.4781 238.105 82.7439C238.106 66.0097 252.715 52.4441 270.736 52.4441ZM270.735 54.7761C254.001 54.7761 240.435 67.2989 240.435 82.7458C240.435 98.1926 254.001 110.715 270.735 110.715C287.469 110.714 301.035 98.1925 301.035 82.7458C301.035 67.299 287.469 54.7764 270.735 54.7761Z" fill="#4AB3EF"/>
</g>
<path fill-rule="evenodd" clip-rule="evenodd" d="M267.51 49.9901C285.531 49.9901 300.141 63.5558 300.141 80.2899C300.141 97.0241 285.531 110.59 267.51 110.59C249.488 110.59 234.879 97.024 234.879 80.2899C234.879 63.5559 249.488 49.9902 267.51 49.9901ZM267.519 52.3173C250.784 52.3173 237.219 64.84 237.219 80.287C237.219 95.7339 250.784 108.256 267.519 108.256C284.253 108.256 297.818 95.7338 297.818 80.287C297.818 64.8401 284.253 52.3174 267.519 52.3173Z" fill="url(#paint5_linear_3531_4800)"/>
<path fill-rule="evenodd" clip-rule="evenodd" d="M184.753 59.3115C199.556 59.3116 211.557 72.8772 211.557 89.6113C211.557 106.345 199.556 119.911 184.753 119.911C169.95 119.911 157.949 106.346 157.949 89.6113C157.949 72.8772 169.95 59.3115 184.753 59.3115ZM184.752 61.6465C171.236 61.6465 160.278 74.1683 160.278 89.6152C160.278 105.062 171.236 117.584 184.752 117.584C198.268 117.584 209.225 105.062 209.225 89.6152C209.225 74.1684 198.268 61.6466 184.752 61.6465Z" fill="url(#paint6_linear_3531_4800)"/>
<g filter="url(#filter6_f_3531_4800)">
<path fill-rule="evenodd" clip-rule="evenodd" d="M183.627 64.1752C188.272 63.3927 193.018 64.1408 197.297 66.3295C201.576 68.5184 205.206 72.0556 207.752 76.517C210.298 80.9783 211.652 86.1748 211.652 91.4838H209.527C209.526 77.409 199.542 65.9995 187.227 65.9995C181.543 65.9995 176.356 68.4304 172.418 72.4311L171.105 70.7426C174.634 67.2383 178.982 64.9579 183.627 64.1752Z" fill="#4AB3EF"/>
</g>
<path d="M295.47 74.4607H297.801L304.794 73.2953L316.447 48.8223H318.778L321.109 53.4838H317.613L307.124 77.9568C307.124 77.9568 297.801 80.2876 295.47 79.1222C293.14 77.9568 294.305 74.4607 295.47 74.4607Z" fill="url(#paint7_linear_3531_4800)"/>
<path d="M236.242 91.7852C227.613 90.3931 217.652 91.4648 212.266 92.4429C211.372 92.6053 210.535 91.927 210.535 91.0185C210.535 90.3614 210.981 89.789 211.624 89.6553C216.703 88.5996 227.758 87.2429 236.864 88.7526C237.586 88.8724 238.102 89.5055 238.102 90.2377C238.102 91.2127 237.205 91.9405 236.242 91.7852Z" fill="url(#paint8_linear_3531_4800)"/>
<path d="M192.975 51.5931C190.711 48.6329 186.627 49.4883 185.238 50.5475C185.129 50.6302 184.964 50.5962 184.915 50.4686C183.241 46.0483 196.224 43.9492 193.333 51.5409C193.277 51.6893 193.072 51.7192 192.975 51.5931Z" fill="#55A4DD"/>
<g filter="url(#filter7_f_3531_4800)">
<path d="M182.939 194.554C174.077 188.257 167.166 180.893 163.144 175.899C162.01 174.491 159.924 175.101 160.369 176.853C164.287 192.256 196.242 204.008 182.939 194.554Z" fill="white" fill-opacity="0.8"/>
</g>
<g filter="url(#filter8_f_3531_4800)">
<path d="M210.528 106.061C211.799 101.474 215.294 100.328 216.883 100.328C221.649 98.8947 225.621 104.627 224.032 106.777C222.444 108.927 208.939 111.793 210.528 106.061Z" fill="#B9E0FA"/>
</g>
<g filter="url(#filter9_f_3531_4800)">
<path d="M287.312 144.385C291.331 151.275 296.786 166.09 299.369 175.393C302.092 185.198 304.536 147.485 287.312 144.385Z" fill="white" fill-opacity="0.5"/>
</g>
<g filter="url(#filter10_f_3531_4800)">
<path d="M175.434 106.698C178.034 103.937 188.542 90.8544 200.785 102.556C203.385 105.041 187.784 119.124 175.434 106.698Z" fill="#FDFDFD" fill-opacity="0.5"/>
</g>
<path d="M291.073 68.0985C289.907 73.9276 286.799 76.2592 285.244 76.2592L282.912 71.5959C286.92 75.6316 292.239 62.2694 291.073 68.0985Z" fill="#173F66"/>
<path d="M284.078 63.4352C282.912 65.7668 280.581 67.7099 279.415 68.0985L282.912 70.4301C287.576 66.9327 285.727 60.1377 284.078 63.4352Z" fill="#173F66"/>
<path d="M278.249 61.1036C277.083 63.4352 274.752 65.3782 273.586 65.7668L278.249 66.9326C280.581 63.4352 279.415 58.7719 278.249 61.1036Z" fill="#173F66"/>
<path d="M287.554 75.2785C286.336 102.072 265.215 92.0602 253.531 94.0217C252.912 94.1257 252.309 93.6632 252.282 93.036C250.78 58.3612 282.684 61.2393 287.503 74.9133C287.543 75.0279 287.56 75.1572 287.554 75.2785Z" fill="url(#paint9_linear_3531_4800)"/>
<path d="M282.908 80.9156C282.908 89.2827 278.246 93.7348 268.923 93.7348C259.6 93.7348 257.27 89.2827 257.27 80.9156C257.27 72.5485 263.009 66.931 270.089 66.931C277.169 66.931 282.908 72.5485 282.908 80.9156Z" fill="url(#paint10_linear_3531_4800)"/>
<path d="M282.908 80.8904C282.908 88.8937 278.246 93.1522 268.923 93.1522C259.6 93.1522 257.27 88.8937 257.27 80.8904C257.27 72.887 263.009 67.5138 270.089 67.5138C277.169 67.5138 282.908 72.887 282.908 80.8904Z" fill="url(#paint11_linear_3531_4800)"/>
<path d="M280.575 80.7885C280.575 87.3366 276.761 90.8209 269.133 90.8209C261.505 90.8209 259.598 87.3366 259.598 80.7885C259.598 74.2403 264.293 69.844 270.086 69.844C275.879 69.844 280.575 74.2403 280.575 80.7885Z" fill="url(#paint12_linear_3531_4800)"/>
<path d="M275.665 80.6464C275.665 85.7413 274.923 88.3239 269.836 88.3239C264.748 88.3239 263.477 85.6129 263.477 80.518C263.477 75.423 264.806 72.1309 268.67 72.1309C272.533 72.1309 275.665 75.5515 275.665 80.6464Z" fill="#142C57"/>
<path d="M252.357 90.7768C251.191 75.6268 265.176 55.8153 287.318 73.296C277.995 54.6499 245.364 65.1383 252.357 90.7768Z" fill="#173F66"/>
<path d="M282.652 69.7997C283.818 70.9655 287.505 74.463 286.15 83.7895C290.813 73.2971 285.757 70.9655 282.652 69.7997Z" fill="#173F66"/>
<ellipse cx="274.498" cy="87.27" rx="1.1635" ry="1.15427" transform="rotate(-0.11512 274.498 87.27)" fill="white"/>
<path d="M281.49 74.4626C281.492 75.3453 279.848 75.0218 279.079 75.0234C278.309 75.0249 277.995 74.1795 277.993 73.2968C277.991 72.4141 278.389 70.9667 279.159 70.9652C279.928 70.9636 281.489 73.5799 281.49 74.4626Z" fill="#EEF8FF"/>
<path d="M265.181 70.1265C268.678 68.9607 268.678 70.9659 268.678 70.9659L266.346 79.1266L259.352 79.4531C259.352 79.4531 261.683 71.2923 265.181 70.1265Z" fill="#F0F8FF"/>
<g filter="url(#filter11_f_3531_4800)">
<path d="M131.153 135.063C129.987 143.221 132.498 161.419 148.633 173.521C167.28 187.505 136.98 157.205 131.153 135.063Z" fill="#99E7F7" fill-opacity="0.8"/>
</g>
<path d="M259.352 94.2712C264.79 92.7174 269.003 92.1691 279.163 91.9405C284.99 91.8094 275.667 95.4366 259.352 94.2712Z" fill="#5BB5F4"/>
<g filter="url(#filter12_f_3531_4800)">
<path d="M250.867 99.8247C254.649 97.0633 269.935 83.9812 287.742 95.6828C291.524 98.168 268.832 112.251 250.867 99.8247Z" fill="#EDF8FE" fill-opacity="0.5"/>
</g>
<path d="M203.408 95.4383C203.337 97.2808 180.101 109.423 177.77 82.6191C178.935 66.3038 204.574 65.1384 203.408 95.4383Z" fill="url(#paint13_linear_3531_4800)"/>
<path d="M177.762 83.7885C178.928 80.6796 181.861 72.6511 189.421 73.2961C197.634 73.9968 175.431 67.467 177.762 83.7885Z" fill="#173F66"/>
<path d="M203.405 87.9049C201.949 96.3986 198.188 97.612 191.751 97.612C185.925 98.8254 180.098 92.8496 180.098 85.4781C180.098 78.1066 183.859 72.1309 190.295 72.1309C196.731 72.1309 203.405 78.1978 203.405 87.9049Z" fill="url(#paint14_linear_3531_4800)"/>
<path d="M201.073 85.0369C200.053 91.9863 197.421 92.9791 192.915 92.9791C188.837 93.9718 184.758 89.0826 184.758 83.0513C184.758 77.0201 187.39 72.1309 191.896 72.1309C196.401 72.1309 201.073 77.0947 201.073 85.0369Z" fill="url(#paint15_linear_3531_4800)"/>
<path d="M198.748 83.0692C198.166 87.7038 196.661 88.3659 194.085 88.3659C191.754 89.028 189.422 85.7673 189.422 81.745C189.422 77.7227 190.927 74.4619 193.502 74.4619C196.078 74.4619 198.748 77.7724 198.748 83.0692Z" fill="#142C57"/>
<path d="M173.105 74.4626C175.902 77.2595 178.155 77.9587 178.932 77.9587C177.767 76.7934 175.436 73.2972 175.436 68.6357C177.301 71.4326 181.263 74.0741 182.429 74.4626C182.429 73.2972 178.932 69.8011 178.932 65.1395C180.797 68.8688 182.817 69.8011 183.594 69.8011C185.925 69.0241 192.917 69.8011 197.578 74.4626C197.578 74.4626 192.638 73.2224 189.421 73.2972C186.653 73.3616 182.429 74.4626 182.429 74.4626L178.932 77.9587L177.65 83.7036C176.438 82.8154 174.008 79.8759 173.105 74.4626Z" fill="#173F66"/>
<path d="M203.406 90.7815C202.241 79.1233 199.909 76.7916 197.577 74.46L192.914 73.2942C196.412 75.2372 202.241 79.1233 203.406 90.7815Z" fill="#173F66"/>
<g filter="url(#filter13_f_3531_4800)">
<path d="M318.12 157.331H308.031C308.616 164.42 310.312 177.902 312.418 175.118C314.523 172.334 317.097 162.1 318.12 157.331Z" fill="#56C2EF"/>
</g>
<path d="M178.931 88.4497C178.931 88.4497 177.765 82.6206 178.931 80.2889C178.542 80.6775 177.299 82.1543 175.434 80.2889C177.765 87.2839 178.931 88.4497 178.931 88.4497Z" fill="#173F66"/>
<path d="M183.594 97.7694C185.925 96.6035 191.754 97.7693 201.081 97.7694C193.122 102.461 184.76 98.9352 183.594 97.7694Z" fill="#82C9F7"/>
<path d="M198.745 77.9594C199.116 79.2771 195.988 80.0608 195.087 80.0608C193.928 80.3872 193.101 79.257 192.73 77.9392C192.359 76.6215 192.354 74.2917 193.512 73.9653C194.621 73.9653 197.579 76.7936 198.745 77.9594Z" fill="#EEF8FF"/>
<path d="M191.751 75.6261C191.751 74.9823 191.229 74.4603 190.586 74.4603C189.942 74.4603 188.254 74.9823 188.254 75.6261C188.254 76.27 188.254 77.9578 190.586 77.9578C191.229 77.9578 191.751 76.27 191.751 75.6261Z" fill="#EEF8FF"/>
<ellipse cx="188.985" cy="92.8748" rx="1.19375" ry="1.73505" transform="rotate(-29.3703 188.985 92.8748)" fill="#EEF8FF"/>
<ellipse cx="186.052" cy="78.1758" rx="1.17012" ry="1.27706" transform="rotate(-5.46049 186.052 78.1758)" fill="#EEF8FF"/>
<g filter="url(#filter14_f_3531_4800)">
<path d="M303.992 197.485L298.183 203.18L283.325 143.38L303.992 197.485Z" fill="#48B7E5"/>
</g>
<g filter="url(#filter15_ii_3531_4800)">
<path d="M303.514 138.721C293.026 127.068 282.537 138.721 286.033 146.879C291.472 165.137 304.68 202.584 314.003 206.314C325.657 210.975 318.664 158.533 303.514 138.721Z" fill="url(#paint16_linear_3531_4800)"/>
</g>
<path d="M359.305 261.669L338.756 309.989H327.953L335.468 293.315L322.141 261.669C322.141 261.669 328.804 259.107 333.942 264.708C336.298 267.276 340.928 282.16 340.928 282.16C340.928 282.16 345.498 268.372 347.941 264.708C351.251 259.743 359.305 261.669 359.305 261.669Z" fill="#142C57"/>
<path d="M307.759 262.785C311.517 262.785 314.531 264.038 316.801 266.543C319.071 269.009 320.206 272.414 320.206 276.759V298.834C320.206 298.834 312.293 299.935 311.192 294.798C310.225 290.284 310.225 278.109 310.225 278.109C310.225 275.917 309.657 274.215 308.522 273.001C307.387 271.788 305.861 271.181 303.943 271.181C302.025 271.181 300.498 271.788 299.363 273.001C298.228 274.215 297.661 275.917 297.661 278.109V295.899H287.621V252.452H297.661V267.541C298.678 266.093 300.068 264.938 301.829 264.077C303.591 263.216 305.567 262.785 307.759 262.785Z" fill="#142C57"/>
<path d="M257.805 267.776C258.784 266.249 260.134 265.016 261.856 264.077C263.579 263.138 265.594 262.668 267.904 262.668C270.604 262.668 273.051 263.353 275.243 264.723C277.434 266.093 279.157 268.05 280.409 270.594C281.701 273.138 282.347 276.093 282.347 279.459C282.347 282.825 281.701 285.8 280.409 288.383C279.157 290.928 277.434 292.904 275.243 294.313C273.051 295.683 270.604 296.368 267.904 296.368C265.633 296.368 263.618 295.899 261.856 294.959C260.134 294.02 258.784 292.806 257.805 291.319V311.516H247.766V263.138H259.079L257.805 267.776ZM272.131 279.459C272.131 276.954 271.426 274.997 270.017 273.588C268.647 272.14 266.945 271.416 264.909 271.416C262.913 271.416 261.211 272.14 259.801 273.588C258.432 275.036 257.747 277.013 257.747 279.518C257.747 282.023 258.432 284 259.801 285.448C261.211 286.896 262.913 287.62 264.909 287.62C266.906 287.62 268.608 286.896 270.017 285.448C271.426 283.961 272.131 281.964 272.131 279.459Z" fill="#142C57"/>
<path d="M220.369 262.668C222.678 262.668 224.694 263.138 226.416 264.077C228.177 265.016 229.528 266.249 230.467 267.776L228.993 263.138H240.507V295.84C240.507 298.854 239.9 301.574 238.687 304.001C237.513 306.467 235.692 308.424 233.227 309.872C230.8 311.32 227.766 312.044 224.126 312.044C219.273 312.044 215.339 310.889 212.325 308.58C209.311 306.31 208.444 303.882 208.444 301.036C208.444 298.19 215.939 298.364 216.517 299.568C217.095 300.772 218.138 301.535 219.312 302.239C220.486 302.983 221.934 303.355 223.657 303.355C225.731 303.355 227.375 302.748 228.588 301.535C229.841 300.361 230.467 298.462 230.467 295.84V291.202C229.489 292.728 228.138 293.981 226.416 294.959C224.694 295.899 222.678 296.368 220.369 296.368C217.668 296.368 215.222 295.683 213.03 294.313C210.838 292.904 209.096 290.928 207.805 288.383C206.552 285.8 205.926 282.825 205.926 279.459C205.926 276.093 206.552 273.138 207.805 270.594C209.096 268.05 210.838 266.093 213.03 264.723C215.222 263.353 217.668 262.668 220.369 262.668ZM230.467 279.518C230.467 277.013 229.763 275.036 228.354 273.588C226.984 272.14 225.301 271.416 223.304 271.416C221.308 271.416 219.606 272.14 218.196 273.588C216.827 274.997 216.142 276.954 216.142 279.459C216.142 281.964 216.827 283.961 218.196 285.448C219.606 286.896 221.308 287.62 223.304 287.62C225.301 287.62 226.984 286.896 228.354 285.448C229.763 284 230.467 282.023 230.467 279.518Z" fill="#142C57"/>
<path d="M188.317 262.785C192.153 262.785 195.206 264.038 197.476 266.543C199.786 269.009 200.94 272.414 200.94 276.759V298.467C200.94 298.467 191.927 299.201 191.193 294.431C190.63 290.77 190.959 278.109 190.959 278.109C190.959 275.917 190.392 274.215 189.257 273.001C188.122 271.788 186.595 271.181 184.677 271.181C182.759 271.181 181.233 271.788 180.098 273.001C178.963 274.215 178.395 275.917 178.395 278.109V295.899H168.355V263.138H179.451L178.395 267.482C179.413 266.034 180.783 264.899 182.505 264.077C184.227 263.216 186.165 262.785 188.317 262.785Z" fill="#142C57"/>
<path d="M126.516 279.459C126.516 276.093 127.142 273.138 128.394 270.594C129.686 268.05 131.428 266.093 133.62 264.723C135.812 263.353 138.258 262.668 140.959 262.668C143.268 262.668 145.284 263.138 147.006 264.077C148.767 265.016 150.118 266.249 151.057 267.776L150.099 263.138H161.097V295.899C161.097 295.899 153.578 298.518 151.934 294.959C151.174 293.315 151.057 291.26 151.057 291.26C150.078 292.787 148.709 294.02 146.947 294.959C145.225 295.899 143.209 296.368 140.9 296.368C138.238 296.368 135.812 295.683 133.62 294.313C131.428 292.904 129.686 290.928 128.394 288.383C127.142 285.8 126.516 282.825 126.516 279.459ZM151.057 279.518C151.057 277.013 150.352 275.036 148.943 273.588C147.573 272.14 145.89 271.416 143.894 271.416C141.898 271.416 140.195 272.14 138.786 273.588C137.416 274.997 136.731 276.954 136.731 279.459C136.731 281.964 137.416 283.961 138.786 285.448C140.195 286.896 141.898 287.62 143.894 287.62C145.89 287.62 147.573 286.896 148.943 285.448C150.352 284 151.057 282.023 151.057 279.518Z" fill="#142C57"/>
<path d="M107.902 286.358H122.579V295.898H97.5977V247.095C97.5977 247.095 107.811 249.717 107.902 253.636C108.166 265.064 107.902 286.358 107.902 286.358Z" fill="#142C57"/>
<defs>
<filter id="filter0_i_3531_4800" x="173.105" y="135.063" width="41.668" height="48.6154" filterUnits="userSpaceOnUse" color-interpolation-filters="sRGB">
<feFlood flood-opacity="0" result="BackgroundImageFix"/>
<feBlend mode="normal" in="SourceGraphic" in2="BackgroundImageFix" result="shape"/>
<feColorMatrix in="SourceAlpha" type="matrix" values="0 0 0 0 0 0 0 0 0 0 0 0 0 0 0 0 0 0 127 0" result="hardAlpha"/>
<feOffset dy="2"/>
<feGaussianBlur stdDeviation="2"/>
<feComposite in2="hardAlpha" operator="arithmetic" k2="-1" k3="1"/>
<feColorMatrix type="matrix" values="0 0 0 0 0.0425347 0 0 0 0 0.549444 0 0 0 0 0.729167 0 0 0 0.4 0"/>
<feBlend mode="normal" in2="shape" result="effect1_innerShadow_3531_4800"/>
</filter>
<filter id="filter1_f_3531_4800" x="170.879" y="151.969" width="13.4141" height="29.5496" filterUnits="userSpaceOnUse" color-interpolation-filters="sRGB">
<feFlood flood-opacity="0" result="BackgroundImageFix"/>
<feBlend mode="normal" in="SourceGraphic" in2="BackgroundImageFix" result="shape"/>
<feGaussianBlur stdDeviation="1" result="effect1_foregroundBlur_3531_4800"/>
</filter>
<filter id="filter2_ii_3531_4800" x="126.492" y="-2" width="204.555" height="235.538" filterUnits="userSpaceOnUse" color-interpolation-filters="sRGB">
<feFlood flood-opacity="0" result="BackgroundImageFix"/>
<feBlend mode="normal" in="SourceGraphic" in2="BackgroundImageFix" result="shape"/>
<feColorMatrix in="SourceAlpha" type="matrix" values="0 0 0 0 0 0 0 0 0 0 0 0 0 0 0 0 0 0 127 0" result="hardAlpha"/>
<feOffset dy="2"/>
<feGaussianBlur stdDeviation="1"/>
<feComposite in2="hardAlpha" operator="arithmetic" k2="-1" k3="1"/>
<feColorMatrix type="matrix" values="0 0 0 0 0.34902 0 0 0 0 0.729412 0 0 0 0 1 0 0 0 0.6 0"/>
<feBlend mode="normal" in2="shape" result="effect1_innerShadow_3531_4800"/>
<feColorMatrix in="SourceAlpha" type="matrix" values="0 0 0 0 0 0 0 0 0 0 0 0 0 0 0 0 0 0 127 0" result="hardAlpha"/>
<feOffset dy="-2"/>
<feGaussianBlur stdDeviation="2.5"/>
<feComposite in2="hardAlpha" operator="arithmetic" k2="-1" k3="1"/>
<feColorMatrix type="matrix" values="0 0 0 0 0.380392 0 0 0 0 0.745098 0 0 0 0 0.937255 0 0 0 0.1 0"/>
<feBlend mode="normal" in2="effect1_innerShadow_3531_4800" result="effect2_innerShadow_3531_4800"/>
</filter>
<filter id="filter3_f_3531_4800" x="297.637" y="49.549" width="25.5703" height="38.2217" filterUnits="userSpaceOnUse" color-interpolation-filters="sRGB">
<feFlood flood-opacity="0" result="BackgroundImageFix"/>
<feBlend mode="normal" in="SourceGraphic" in2="BackgroundImageFix" result="shape"/>
<feGaussianBlur stdDeviation="0.5" result="effect1_foregroundBlur_3531_4800"/>
</filter>
<filter id="filter4_f_3531_4800" x="208.863" y="91.1118" width="32.2578" height="6.41504" filterUnits="userSpaceOnUse" color-interpolation-filters="sRGB">
<feFlood flood-opacity="0" result="BackgroundImageFix"/>
<feBlend mode="normal" in="SourceGraphic" in2="BackgroundImageFix" result="shape"/>
<feGaussianBlur stdDeviation="0.5" result="effect1_foregroundBlur_3531_4800"/>
</filter>
<filter id="filter5_f_3531_4800" x="237.105" y="51.4441" width="67.2617" height="62.5996" filterUnits="userSpaceOnUse" color-interpolation-filters="sRGB">
<feFlood flood-opacity="0" result="BackgroundImageFix"/>
<feBlend mode="normal" in="SourceGraphic" in2="BackgroundImageFix" result="shape"/>
<feGaussianBlur stdDeviation="0.5" result="effect1_foregroundBlur_3531_4800"/>
</filter>
<filter id="filter6_f_3531_4800" x="170.105" y="62.8737" width="42.5469" height="29.6102" filterUnits="userSpaceOnUse" color-interpolation-filters="sRGB">
<feFlood flood-opacity="0" result="BackgroundImageFix"/>
<feBlend mode="normal" in="SourceGraphic" in2="BackgroundImageFix" result="shape"/>
<feGaussianBlur stdDeviation="0.5" result="effect1_foregroundBlur_3531_4800"/>
</filter>
<filter id="filter7_f_3531_4800" x="157.309" y="172.12" width="31.8516" height="28.8229" filterUnits="userSpaceOnUse" color-interpolation-filters="sRGB">
<feFlood flood-opacity="0" result="BackgroundImageFix"/>
<feBlend mode="normal" in="SourceGraphic" in2="BackgroundImageFix" result="shape"/>
<feGaussianBlur stdDeviation="1.5" result="effect1_foregroundBlur_3531_4800"/>
</filter>
<filter id="filter8_f_3531_4800" x="208.398" y="98.1007" width="17.9883" height="13.3265" filterUnits="userSpaceOnUse" color-interpolation-filters="sRGB">
<feFlood flood-opacity="0" result="BackgroundImageFix"/>
<feBlend mode="normal" in="SourceGraphic" in2="BackgroundImageFix" result="shape"/>
<feGaussianBlur stdDeviation="1" result="effect1_foregroundBlur_3531_4800"/>
</filter>
<filter id="filter9_f_3531_4800" x="282.312" y="139.385" width="23.9844" height="42.6307" filterUnits="userSpaceOnUse" color-interpolation-filters="sRGB">
<feFlood flood-opacity="0" result="BackgroundImageFix"/>
<feBlend mode="normal" in="SourceGraphic" in2="BackgroundImageFix" result="shape"/>
<feGaussianBlur stdDeviation="2.5" result="effect1_foregroundBlur_3531_4800"/>
</filter>
<filter id="filter10_f_3531_4800" x="173.434" y="95.7683" width="29.6367" height="17.9846" filterUnits="userSpaceOnUse" color-interpolation-filters="sRGB">
<feFlood flood-opacity="0" result="BackgroundImageFix"/>
<feBlend mode="normal" in="SourceGraphic" in2="BackgroundImageFix" result="shape"/>
<feGaussianBlur stdDeviation="1" result="effect1_foregroundBlur_3531_4800"/>
</filter>
<filter id="filter11_f_3531_4800" x="128.906" y="133.063" width="27.7188" height="46.0121" filterUnits="userSpaceOnUse" color-interpolation-filters="sRGB">
<feFlood flood-opacity="0" result="BackgroundImageFix"/>
<feBlend mode="normal" in="SourceGraphic" in2="BackgroundImageFix" result="shape"/>
<feGaussianBlur stdDeviation="1" result="effect1_foregroundBlur_3531_4800"/>
</filter>
<filter id="filter12_f_3531_4800" x="248.867" y="88.8951" width="41.293" height="17.9846" filterUnits="userSpaceOnUse" color-interpolation-filters="sRGB">
<feFlood flood-opacity="0" result="BackgroundImageFix"/>
<feBlend mode="normal" in="SourceGraphic" in2="BackgroundImageFix" result="shape"/>
<feGaussianBlur stdDeviation="1" result="effect1_foregroundBlur_3531_4800"/>
</filter>
<filter id="filter13_f_3531_4800" x="306.031" y="155.331" width="14.0898" height="22.1605" filterUnits="userSpaceOnUse" color-interpolation-filters="sRGB">
<feFlood flood-opacity="0" result="BackgroundImageFix"/>
<feBlend mode="normal" in="SourceGraphic" in2="BackgroundImageFix" result="shape"/>
<feGaussianBlur stdDeviation="1" result="effect1_foregroundBlur_3531_4800"/>
</filter>
<filter id="filter14_f_3531_4800" x="281.324" y="141.38" width="24.668" height="63.8003" filterUnits="userSpaceOnUse" color-interpolation-filters="sRGB">
<feFlood flood-opacity="0" result="BackgroundImageFix"/>
<feBlend mode="normal" in="SourceGraphic" in2="BackgroundImageFix" result="shape"/>
<feGaussianBlur stdDeviation="1" result="effect1_foregroundBlur_3531_4800"/>
</filter>
<filter id="filter15_ii_3531_4800" x="285.348" y="131.802" width="36.4883" height="74.8035" filterUnits="userSpaceOnUse" color-interpolation-filters="sRGB">
<feFlood flood-opacity="0" result="BackgroundImageFix"/>
<feBlend mode="normal" in="SourceGraphic" in2="BackgroundImageFix" result="shape"/>
<feColorMatrix in="SourceAlpha" type="matrix" values="0 0 0 0 0 0 0 0 0 0 0 0 0 0 0 0 0 0 127 0" result="hardAlpha"/>
<feOffset dy="-2"/>
<feGaussianBlur stdDeviation="4"/>
<feComposite in2="hardAlpha" operator="arithmetic" k2="-1" k3="1"/>
<feColorMatrix type="matrix" values="0 0 0 0 0.218698 0 0 0 0 0.714874 0 0 0 0 0.920833 0 0 0 0.5 0"/>
<feBlend mode="normal" in2="shape" result="effect1_innerShadow_3531_4800"/>
<feColorMatrix in="SourceAlpha" type="matrix" values="0 0 0 0 0 0 0 0 0 0 0 0 0 0 0 0 0 0 127 0" result="hardAlpha"/>
<feOffset dx="2"/>
<feGaussianBlur stdDeviation="2"/>
<feComposite in2="hardAlpha" operator="arithmetic" k2="-1" k3="1"/>
<feColorMatrix type="matrix" values="0 0 0 0 0.388235 0 0 0 0 0.905882 0 0 0 0 0.964706 0 0 0 1 0"/>
<feBlend mode="normal" in2="effect1_innerShadow_3531_4800" result="effect2_innerShadow_3531_4800"/>
</filter>
<linearGradient id="paint0_linear_3531_4800" x1="162.621" y1="80.2889" x2="162.621" y2="94.2735" gradientUnits="userSpaceOnUse">
<stop stop-color="#10BFCF"/>
<stop offset="1" stop-color="#A7F7FB"/>
</linearGradient>
<linearGradient id="paint1_linear_3531_4800" x1="230.209" y1="139.725" x2="231.375" y2="186.34" gradientUnits="userSpaceOnUse">
<stop stop-color="#5FC7F5"/>
<stop offset="1" stop-color="#ACF0FC"/>
</linearGradient>
<linearGradient id="paint2_linear_3531_4800" x1="228.77" y1="2.20792" x2="228.77" y2="231.538" gradientUnits="userSpaceOnUse">
<stop offset="0.0292509" stop-color="#EEF8FF"/>
<stop offset="0.396124" stop-color="#5AB4F3"/>
<stop offset="1" stop-color="#68F0F8"/>
</linearGradient>
<linearGradient id="paint3_linear_3531_4800" x1="228.463" y1="106.018" x2="228.463" y2="124.409" gradientUnits="userSpaceOnUse">
<stop stop-color="#011F44"/>
<stop offset="1" stop-color="#44B5ED"/>
</linearGradient>
<linearGradient id="paint4_linear_3531_4800" x1="229.047" y1="93.5093" x2="229.047" y2="119.148" gradientUnits="userSpaceOnUse">
<stop stop-color="#5BB7F4"/>
<stop offset="1" stop-color="#B5E0FF"/>
</linearGradient>
<linearGradient id="paint5_linear_3531_4800" x1="267.51" y1="49.9901" x2="267.51" y2="110.59" gradientUnits="userSpaceOnUse">
<stop stop-color="#E0F2FF"/>
<stop offset="1" stop-color="#1465E1"/>
</linearGradient>
<linearGradient id="paint6_linear_3531_4800" x1="184.753" y1="59.3115" x2="184.753" y2="119.911" gradientUnits="userSpaceOnUse">
<stop stop-color="#E0F2FF"/>
<stop offset="1" stop-color="#1465E1"/>
</linearGradient>
<linearGradient id="paint7_linear_3531_4800" x1="324.605" y1="46.4915" x2="307.617" y2="79.4485" gradientUnits="userSpaceOnUse">
<stop stop-color="#08E5F4"/>
<stop offset="1" stop-color="#94F8FF"/>
</linearGradient>
<linearGradient id="paint8_linear_3531_4800" x1="224.318" y1="88.0801" x2="224.318" y2="92.7866" gradientUnits="userSpaceOnUse">
<stop stop-color="#E0F2FF"/>
<stop offset="1" stop-color="#1465E1"/>
</linearGradient>
<linearGradient id="paint9_linear_3531_4800" x1="269.956" y1="65.5299" x2="261.672" y2="94.2715" gradientUnits="userSpaceOnUse">
<stop stop-color="#173F66"/>
<stop offset="0.693722" stop-color="white"/>
</linearGradient>
<linearGradient id="paint10_linear_3531_4800" x1="270.089" y1="66.931" x2="271.001" y2="87.2806" gradientUnits="userSpaceOnUse">
<stop stop-color="#054878"/>
<stop offset="1" stop-color="#A3C9ED"/>
</linearGradient>
<linearGradient id="paint11_linear_3531_4800" x1="270.089" y1="67.5138" x2="270.924" y2="86.9819" gradientUnits="userSpaceOnUse">
<stop stop-color="#054878"/>
<stop offset="1" stop-color="#B4DBFF"/>
</linearGradient>
<linearGradient id="paint12_linear_3531_4800" x1="270.086" y1="69.844" x2="270.086" y2="90.8209" gradientUnits="userSpaceOnUse">
<stop stop-color="#0F6FB3"/>
<stop offset="1" stop-color="#2A8CD2"/>
</linearGradient>
<linearGradient id="paint13_linear_3531_4800" x1="191.754" y1="73.2961" x2="180.578" y2="97.9068" gradientUnits="userSpaceOnUse">
<stop stop-color="#173F66"/>
<stop offset="0.693722" stop-color="white"/>
</linearGradient>
<linearGradient id="paint14_linear_3531_4800" x1="191.751" y1="72.1309" x2="192.67" y2="91.5914" gradientUnits="userSpaceOnUse">
<stop stop-color="#054878"/>
<stop offset="1" stop-color="#B4DBFF"/>
</linearGradient>
<linearGradient id="paint15_linear_3531_4800" x1="192.915" y1="72.1309" x2="192.915" y2="93.1077" gradientUnits="userSpaceOnUse">
<stop stop-color="#173F66"/>
<stop offset="1" stop-color="#2A8CD2"/>
</linearGradient>
<linearGradient id="paint16_linear_3531_4800" x1="302.592" y1="133.802" x2="302.592" y2="206.605" gradientUnits="userSpaceOnUse">
<stop stop-color="#60CCF6"/>
<stop offset="1" stop-color="#BEF8FF"/>
</linearGradient>
</defs>
</svg>
