<svg width="32" height="32" viewBox="0 0 32 32" fill="none" xmlns="http://www.w3.org/2000/svg">
<path d="M23.3407 2.69174C17.1052 3.77948 16 10.0001 16 10.0001V29.3334C16 29.3334 17.1823 22.8364 24.0005 22.0785C24.7324 21.9972 25.3333 21.4102 25.3333 20.6745V4.5242C25.3333 3.42062 24.4288 2.50192 23.3407 2.69174Z" stroke="#3FA1FF" stroke-width="1.5" stroke-linecap="round" stroke-linejoin="round"/>
<path d="M7.11241 6.66676C10.393 6.66217 13.5593 7.84953 16.0013 10.0001V29.3334C13.5593 27.1829 10.393 25.9955 7.11241 26.0001C5.02973 26.0001 3.9884 26.0001 3.52832 25.7057C3.2521 25.5289 3.13925 25.4159 2.96245 25.1397C2.66797 24.6797 2.66797 23.8589 2.66797 22.2173V11.2044C2.66797 9.30065 2.66797 8.3488 3.39962 7.57723C4.13128 6.80565 4.88028 6.76584 6.37826 6.68621C6.6213 6.67329 6.86608 6.66676 7.11241 6.66676Z" stroke="#3FA1FF" stroke-width="1.5" stroke-linecap="round" stroke-linejoin="round"/>
<path d="M16 29.3347C18.442 27.1842 21.6083 25.9969 24.8889 26.0014C26.9716 26.0014 28.0129 26.0014 28.4729 25.707C28.7492 25.5302 28.862 25.4173 29.0388 25.1411C29.3333 24.681 29.3333 23.8602 29.3333 22.2186V11.2057C29.3333 9.30201 29.3333 8.35016 28.6017 7.57859C27.87 6.80701 26.8313 6.74637 25.3333 6.66675" stroke="#3FA1FF" stroke-width="1.5" stroke-linecap="round" stroke-linejoin="round"/>
</svg>
