<svg width="16" height="16" viewBox="0 0 16 16" fill="none" xmlns="http://www.w3.org/2000/svg">
<path d="M6.1055 3.80815L5.83707 3.20417C5.66155 2.80925 5.57379 2.61179 5.44254 2.46067C5.27805 2.27129 5.06364 2.13196 4.82378 2.05857C4.63239 2 4.4163 2 3.98414 2C3.35194 2 3.03584 2 2.77048 2.12153C2.45791 2.26468 2.17562 2.57552 2.06315 2.9004C1.96767 3.17619 1.99502 3.45962 2.04972 4.02647C2.63194 10.0601 5.93988 13.3681 11.9735 13.9503C12.5404 14.005 12.8238 14.0323 13.0996 13.9369C13.4245 13.8244 13.7353 13.5421 13.8785 13.2295C14 12.9641 14 12.6481 14 12.0159C14 11.5837 14 11.3676 13.9414 11.1762C13.868 10.9363 13.7287 10.7219 13.5393 10.5575C13.3882 10.4262 13.1908 10.3385 12.7958 10.1629L12.1918 9.89447C11.7642 9.7044 11.5503 9.6094 11.333 9.58873C11.125 9.56893 10.9154 9.59813 10.7207 9.67393C10.5173 9.75313 10.3376 9.90293 9.97797 10.2025C9.6201 10.5008 9.44117 10.6499 9.2225 10.7298C9.02864 10.8006 8.77237 10.8269 8.56824 10.7967C8.3379 10.7628 8.16157 10.6686 7.80884 10.4801C6.7115 9.89367 6.10635 9.28853 5.51991 8.19113C5.33143 7.83847 5.23719 7.66207 5.20324 7.4318C5.17316 7.2276 5.19938 6.97133 5.2702 6.77753C5.35008 6.55885 5.49921 6.37991 5.79746 6.022C6.09708 5.66245 6.24689 5.48268 6.3261 5.27927C6.4019 5.08463 6.43108 4.87493 6.4113 4.66699C6.39062 4.44968 6.29558 4.23584 6.1055 3.80815Z" fill="white"/>
</svg>
