<svg width="32" height="32" viewBox="0 0 32 32" fill="none" xmlns="http://www.w3.org/2000/svg">
<path d="M26.0013 2.66675H18.0013C16.1604 2.66675 14.668 4.15913 14.668 6.00008V14.0001C14.668 15.841 16.1604 17.3334 18.0013 17.3334H26.0013C27.8423 17.3334 29.3346 15.841 29.3346 14.0001V6.00008C29.3346 4.15913 27.8423 2.66675 26.0013 2.66675Z" stroke="#3FA1FF" stroke-width="1.5" stroke-linecap="round" stroke-linejoin="round"/>
<path d="M14.668 8.66724C11.9646 8.6721 10.549 8.73848 9.64428 9.64316C8.66797 10.6195 8.66797 12.1908 8.66797 15.3335V16.6668C8.66797 19.8095 8.66797 21.3808 9.64428 22.3572C10.6206 23.3335 12.1919 23.3335 15.3346 23.3335H16.668C19.8106 23.3335 21.382 23.3335 22.3584 22.3572C23.263 21.4526 23.3294 20.0368 23.3342 17.3335" stroke="#3FA1FF" stroke-width="1.5" stroke-linecap="round" stroke-linejoin="round"/>
<path d="M8.66797 14.6672C5.9646 14.672 4.54897 14.7384 3.64428 15.6431C2.66797 16.6195 2.66797 18.1908 2.66797 21.3335V22.6668C2.66797 25.8095 2.66797 27.3808 3.64428 28.3572C4.6206 29.3335 6.19194 29.3335 9.33464 29.3335H10.668C13.8106 29.3335 15.382 29.3335 16.3584 28.3572C17.263 27.4526 17.3294 26.0368 17.3342 23.3335" stroke="#3FA1FF" stroke-width="1.5" stroke-linecap="round" stroke-linejoin="round"/>
</svg>
