<svg width="32" height="32" viewBox="0 0 32 32" fill="none" xmlns="http://www.w3.org/2000/svg">
<path d="M17.1732 9.35549L23.5371 11.0511M15.8091 14.4179L18.991 15.2657M15.9674 23.9553L17.2402 24.2945C20.84 25.2535 22.64 25.7331 24.058 24.9191C25.476 24.105 25.9584 22.3151 26.923 18.7355L28.2871 13.6731C29.2518 10.0935 29.734 8.30365 28.9154 6.89363C28.0967 5.4836 26.2967 5.00401 22.6967 4.04485L21.4239 3.70573C17.824 2.74656 16.024 2.26699 14.606 3.08107C13.188 3.89515 12.7057 5.68497 11.7411 9.26463L10.3769 14.327C9.4123 17.9066 8.93 19.6965 9.7487 21.1065C10.5674 22.5166 12.3674 22.9962 15.9674 23.9553Z" stroke="#3FA1FF" stroke-width="1.5" stroke-linecap="round"/>
<path d="M16.0013 27.9283L14.7316 28.2741C11.14 29.2521 9.34427 29.741 7.92956 28.911C6.51486 28.081 6.03369 26.2561 5.07135 22.6062L3.7104 17.4445C2.74805 13.7946 2.26688 11.9696 3.08366 10.532C3.7902 9.28831 5.33464 9.33359 7.33464 9.33343" stroke="#3FA1FF" stroke-width="1.5" stroke-linecap="round"/>
</svg>
