<svg width="32" height="32" viewBox="0 0 32 32" fill="none" xmlns="http://www.w3.org/2000/svg">
<path d="M26.7799 22.6667C27.4465 20.6667 28 17.9157 28 16C28 9.37259 22.6275 4 16 4C9.37259 4 4 9.37259 4 16C4 17.9157 4.55349 20.6667 5.22016 22.6667" stroke="#3FA1FF" stroke-width="1.5" stroke-linecap="round" stroke-linejoin="round"/>
<path d="M11.9674 26.1391L9.65012 19.4837C9.40324 18.8622 8.6143 18.5509 7.96527 18.7063C5.95124 19.3778 4.8603 21.5625 5.52859 23.5861L6.1126 25.3545C6.78088 27.3779 8.95532 28.4741 10.9693 27.8026C11.584 27.5409 12.138 26.7863 11.9674 26.1391Z" stroke="#3FA1FF" stroke-width="1.5" stroke-linecap="round" stroke-linejoin="round"/>
<path d="M20.0313 26.1391L22.3485 19.4837C22.5955 18.8622 23.3844 18.5509 24.0335 18.7063C26.0475 19.3778 27.1384 21.5625 26.4701 23.5861L25.8861 25.3545C25.2179 27.3779 23.0433 28.4741 21.0293 27.8026C20.4147 27.5409 19.8607 26.7863 20.0313 26.1391Z" stroke="#3FA1FF" stroke-width="1.5" stroke-linecap="round" stroke-linejoin="round"/>
</svg>
