<svg width="24" height="24" viewBox="0 0 24 24" fill="none" xmlns="http://www.w3.org/2000/svg">
<g clip-path="url(#clip0_3578_1510)">
<path d="M11.9993 7.59839C9.57048 7.59839 7.59766 9.57121 7.59766 12C7.59766 14.4289 9.57048 16.4065 11.9993 16.4065C14.4281 16.4065 16.4057 14.4289 16.4057 12C16.4057 9.57121 14.4281 7.59839 11.9993 7.59839Z" fill="white"/>
<path d="M18.6434 -0.000305176H5.35685C2.40482 -0.000305176 0 2.40452 0 5.35655V18.6431C0 21.5999 2.40482 23.9999 5.35685 23.9999H18.6434C21.6002 23.9999 24.0002 21.5999 24.0002 18.6431V5.35655C24.0002 2.40452 21.6002 -0.000305176 18.6434 -0.000305176ZM12.0001 19.7759C7.71368 19.7759 4.22404 16.2863 4.22404 11.9998C4.22404 7.71337 7.71368 4.22854 12.0001 4.22854C16.2866 4.22854 19.7762 7.71337 19.7762 11.9998C19.7762 16.2863 16.2866 19.7759 12.0001 19.7759ZM19.9394 5.63975C19.0322 5.63975 18.293 4.90534 18.293 3.99814C18.293 3.09093 19.0322 2.35172 19.9394 2.35172C20.8466 2.35172 21.5858 3.09093 21.5858 3.99814C21.5858 4.90534 20.8466 5.63975 19.9394 5.63975Z" fill="white"/>
</g>
<defs>
<clipPath id="clip0_3578_1510">
<rect width="24" height="24" fill="white"/>
</clipPath>
</defs>
</svg>
