<svg width="16" height="16" viewBox="0 0 16 16" fill="none" xmlns="http://www.w3.org/2000/svg">
<path d="M9.07847 14.2446C8.7894 14.5153 8.40293 14.6666 8.00073 14.6666C7.59853 14.6666 7.21213 14.5153 6.923 14.2446C4.27535 11.7506 0.727174 8.96458 2.45751 4.91975C3.39309 2.73275 5.63889 1.33331 8.00073 1.33331C10.3626 1.33331 12.6084 2.73275 13.544 4.91975C15.2721 8.95951 11.7327 11.7592 9.07847 14.2446Z" fill="white" stroke="white" stroke-width="1.5"/>
<path d="M10.3346 7.33333C10.3346 8.622 9.28997 9.66667 8.0013 9.66667C6.71264 9.66667 5.66797 8.622 5.66797 7.33333C5.66797 6.04467 6.71264 5 8.0013 5C9.28997 5 10.3346 6.04467 10.3346 7.33333Z" fill="#142C57" stroke="#142C57" stroke-width="1.5"/>
</svg>
