<svg width="16" height="16" viewBox="0 0 16 16" fill="none" xmlns="http://www.w3.org/2000/svg">
<path d="M1.34254 8.98371C1.38612 11.0274 1.40792 12.0492 2.162 12.8062C2.91608 13.5632 3.96558 13.5895 6.06458 13.6422C7.35823 13.6748 8.63916 13.6748 9.93283 13.6422C12.0318 13.5895 13.0813 13.5632 13.8354 12.8062C14.5895 12.0492 14.6113 11.0274 14.6548 8.98371C14.6689 8.32658 14.6689 7.67338 14.6548 7.01625C14.6113 4.97255 14.5895 3.95071 13.8354 3.19375C13.0813 2.4368 12.0318 2.41043 9.93283 2.35769C8.63916 2.32519 7.35823 2.32519 6.06458 2.35769C3.96558 2.41042 2.91608 2.43679 2.162 3.19375C1.40791 3.9507 1.38612 4.97255 1.34254 7.01625C1.32852 7.67338 1.32853 8.32658 1.34254 8.98371Z" fill="white" stroke="white" stroke-width="1.5" stroke-linejoin="round"/>
<path d="M1.33203 4L5.94071 6.61131C7.63976 7.574 8.35763 7.574 10.0567 6.61131L14.6654 4" stroke="#142C57" stroke-width="1.5" stroke-linejoin="round"/>
</svg>
