<svg width="32" height="32" viewBox="0 0 32 32" fill="none" xmlns="http://www.w3.org/2000/svg">
<path d="M22.6654 9.33341V14.6667C22.6654 18.3486 19.6806 21.3334 15.9987 21.3334C12.3168 21.3334 9.33203 18.3486 9.33203 14.6667V9.33341C9.33203 5.65152 12.3168 2.66675 15.9987 2.66675C19.6806 2.66675 22.6654 5.65152 22.6654 9.33341Z" stroke="#3FA1FF" stroke-width="1.5"/>
<path d="M22.668 9.33325H18.668M22.668 14.6666H18.668" stroke="#3FA1FF" stroke-width="1.5" stroke-linecap="round"/>
<path d="M26.6654 14.6667C26.6654 20.5578 21.8898 25.3334 15.9987 25.3334M15.9987 25.3334C10.1077 25.3334 5.33203 20.5578 5.33203 14.6667M15.9987 25.3334V29.3334M15.9987 29.3334H19.9987M15.9987 29.3334H11.9987" stroke="#3FA1FF" stroke-width="1.5" stroke-linecap="round"/>
</svg>
