<svg width="32" height="32" viewBox="0 0 32 32" fill="none" xmlns="http://www.w3.org/2000/svg">
<path d="M21.9012 6.14012L23.2212 4.82013C24.3148 3.72662 26.0877 3.72662 27.1812 4.82013C28.2746 5.91365 28.2746 7.68657 27.1812 8.78009L25.8612 10.1001M21.9012 6.14012L13.0221 15.0192C12.3454 15.696 11.8654 16.5437 11.6333 17.4721L10.668 21.3333L14.5292 20.368C15.4576 20.136 16.3053 19.6559 16.9821 18.9792L25.8612 10.1001M21.9012 6.14012L25.8612 10.1001" stroke="#3FA1FF" stroke-width="1.5" stroke-linejoin="round"/>
<path d="M25.3332 18.0001C25.3332 22.3834 25.3332 24.575 24.1227 26.0502C23.9011 26.3202 23.6535 26.5678 23.3833 26.7894C21.9083 28.0001 19.7165 28.0001 15.3332 28.0001H14.6667C9.63835 28.0001 7.12421 28.0001 5.56212 26.4379C4.00004 24.8759 4 22.3617 4 17.3334V16.6667C4 12.2834 4 10.0918 5.21059 8.61667C5.43223 8.34661 5.67987 8.09897 5.94992 7.87733C7.42505 6.66675 9.61669 6.66675 14 6.66675" stroke="#3FA1FF" stroke-width="1.5" stroke-linecap="round" stroke-linejoin="round"/>
</svg>
