<svg width="32" height="32" viewBox="0 0 32 32" fill="none" xmlns="http://www.w3.org/2000/svg">
<path d="M11.524 4.1942L9.25088 5.24491C5.75029 6.863 4 7.67204 4 9.00008C4 10.3281 5.75029 11.1372 9.25089 12.7553L11.524 13.8059C13.7269 14.8242 14.8285 15.3334 16 15.3334C17.1715 15.3334 18.2731 14.8242 20.476 13.8059L22.7491 12.7553C26.2497 11.1372 28 10.3281 28 9.00008C28 7.67204 26.2497 6.863 22.7491 5.24491L20.476 4.1942C18.2731 3.17589 17.1715 2.66675 16 2.66675C14.8285 2.66675 13.7269 3.17589 11.524 4.1942Z" stroke="#3FA1FF" stroke-width="1.5" stroke-linecap="round" stroke-linejoin="round"/>
<path d="M27.7173 14.7964C27.9057 15.0613 28 15.3376 28 15.6413C28 16.9504 26.2497 17.748 22.7491 19.3431L20.476 20.3788C18.2731 21.3825 17.1715 21.8845 16 21.8845C14.8285 21.8845 13.7269 21.3825 11.524 20.3788L9.25089 19.3431C5.75029 17.748 4 16.9504 4 15.6413C4 15.3376 4.09423 15.0613 4.28267 14.7964" stroke="#3FA1FF" stroke-width="1.5" stroke-linecap="round" stroke-linejoin="round"/>
<path d="M27.1689 21.6882C27.7229 22.1296 28 22.5694 28 23.0902C28 24.3994 26.2497 25.1969 22.7491 26.792L20.476 27.8277C18.2731 28.8316 17.1715 29.3334 16 29.3334C14.8285 29.3334 13.7269 28.8316 11.524 27.8277L9.25089 26.792C5.75029 25.1969 4 24.3994 4 23.0902C4 22.5694 4.27704 22.1296 4.83112 21.6882" stroke="#3FA1FF" stroke-width="1.5" stroke-linecap="round" stroke-linejoin="round"/>
</svg>
