<svg width="32" height="32" viewBox="0 0 32 32" fill="none" xmlns="http://www.w3.org/2000/svg">
<path d="M16 2.66675C10.4771 2.66675 6 7.14389 6 12.6667C6 15.7547 7.39964 18.5157 9.59912 20.3501C10.9202 21.4519 12 22.9465 12 24.6667H20C20 22.9465 21.0797 21.4519 22.4009 20.3501C24.6004 18.5157 26 15.7547 26 12.6667C26 7.14389 21.5228 2.66675 16 2.66675Z" stroke="#3FA1FF" stroke-width="1.5"/>
<path d="M20 24.6667H12V27.3334C12 28.4379 12.8954 29.3334 14 29.3334H18C19.1045 29.3334 20 28.4379 20 27.3334V24.6667Z" stroke="#3FA1FF" stroke-width="1.5" stroke-linejoin="round"/>
<path d="M13.332 10.6667C13.332 9.31664 14.5259 8 15.9987 8C17.4715 8 18.6654 9.09441 18.6654 10.4444C18.6654 10.9311 18.5103 11.3845 18.2428 11.7654C17.4459 12.9007 15.9987 13.9833 15.9987 15.3333" stroke="#3FA1FF" stroke-width="1.5" stroke-linecap="round"/>
<path d="M15.9883 18.6667H16.0003" stroke="#3FA1FF" stroke-width="2" stroke-linecap="round" stroke-linejoin="round"/>
</svg>
