<svg width="32" height="32" viewBox="0 0 32 32" fill="none" xmlns="http://www.w3.org/2000/svg">
<path d="M15.332 6.66675C19.1032 6.66675 20.9888 6.66675 22.1604 7.83832C23.332 9.00989 23.332 10.8955 23.332 14.6667C23.332 25.3334 28.6654 25.3334 28.6654 25.3334H9.6502C9.21292 25.3334 8.99427 25.3334 8.4985 25.2043C8.00272 25.0751 7.92386 25.0311 7.76614 24.943C6.24603 24.0937 3.33203 21.5657 3.33203 14.6667C3.33203 10.8955 3.33203 9.00989 4.5036 7.83832C5.67518 6.66675 7.56079 6.66675 11.332 6.66675" stroke="#3FA1FF" stroke-width="1.5" stroke-linecap="round" stroke-linejoin="round"/>
<path d="M3.33203 13.3333V21.3333C3.33203 25.1045 3.33203 26.9901 4.5036 28.1617C5.67518 29.3333 7.56079 29.3333 11.332 29.3333H15.4335C19.2047 29.3333 21.0904 29.3333 22.2619 28.1617C22.9151 27.5085 23.2042 26.6334 23.332 25.3333" stroke="#3FA1FF" stroke-width="1.5" stroke-linecap="round" stroke-linejoin="round"/>
<path d="M15.332 4.66675V8.66675C15.332 9.288 15.332 9.59863 15.2306 9.84365C15.0952 10.1704 14.8356 10.4299 14.509 10.5653C14.2639 10.6667 13.9532 10.6667 13.332 10.6667C12.7108 10.6667 12.4002 10.6667 12.1551 10.5653C11.8284 10.4299 11.5688 10.1704 11.4335 9.84365C11.332 9.59863 11.332 9.288 11.332 8.66675V4.66675C11.332 4.04549 11.332 3.73487 11.4335 3.48984C11.5688 3.16313 11.8284 2.90356 12.1551 2.76824C12.4002 2.66675 12.7108 2.66675 13.332 2.66675C13.9532 2.66675 14.2639 2.66675 14.509 2.76824C14.8356 2.90356 15.0952 3.16313 15.2306 3.48984C15.332 3.73487 15.332 4.04549 15.332 4.66675Z" stroke="#3FA1FF" stroke-width="1.5" stroke-linecap="round" stroke-linejoin="round"/>
</svg>
