<svg width="24" height="24" viewBox="0 0 24 24" fill="none" xmlns="http://www.w3.org/2000/svg">
<g clip-path="url(#clip0_3578_1518)">
<path d="M12 24C18.6274 24 24 18.6274 24 12C24 5.37258 18.6274 0 12 0C5.37258 0 0 5.37258 0 12C0 18.6274 5.37258 24 12 24Z" fill="white"/>
<path d="M15.9262 7.48578H8.07254C7.75869 7.48578 7.44791 7.54762 7.15797 7.66778C6.86802 7.78793 6.6046 7.96404 6.38274 8.18604C6.16089 8.40804 5.98495 8.67159 5.86499 8.96161C5.74503 9.25163 5.68339 9.56245 5.68359 9.8763V14.1237C5.68339 14.4375 5.74503 14.7483 5.86499 15.0384C5.98495 15.3284 6.16089 15.5919 6.38274 15.8139C6.6046 16.0359 6.86802 16.212 7.15797 16.3322C7.44791 16.4524 7.75869 16.5142 8.07254 16.5142H15.9262C16.2401 16.5142 16.5509 16.4524 16.8408 16.3322C17.1307 16.212 17.3942 16.0359 17.616 15.8139C17.8379 15.5919 18.0138 15.3284 18.1338 15.0384C18.2537 14.7483 18.3154 14.4375 18.3152 14.1237V9.8763C18.3154 9.56245 18.2537 9.25163 18.1338 8.96161C18.0138 8.67159 17.8379 8.40804 17.616 8.18604C17.3942 7.96404 17.1307 7.78793 16.8408 7.66778C16.5509 7.54762 16.2401 7.48578 15.9262 7.48578ZM10.3352 13.9358V10.0642L13.6636 12L10.3352 13.9358Z" fill="#142C57"/>
</g>
<defs>
<clipPath id="clip0_3578_1518">
<rect width="24" height="24" fill="white"/>
</clipPath>
</defs>
</svg>
